<svg width="46" height="46" viewBox="0 0 46 46" fill="none" xmlns="http://www.w3.org/2000/svg">
<path d="M22.7287 45.549C10.1759 45.549 0 35.3525 0 22.7745C0 10.1965 10.1759 0 22.7287 0C35.2814 0 45.4573 10.1965 45.4573 22.7745C45.4693 35.3525 35.2814 45.549 22.7287 45.549Z" fill="#ED705D"/>
<path d="M19.2654 36.5374H24.7952V22.6549H28.653L29.0591 18.0114H24.7833C24.7833 18.0114 24.7833 16.2761 24.7833 15.3666C24.7833 14.2655 24.9983 13.8347 26.0612 13.8347C26.9092 13.8347 29.0591 13.8347 29.0591 13.8347V9.01172C29.0591 9.01172 25.906 9.01172 25.2252 9.01172C21.1047 9.01172 19.2534 10.8308 19.2534 14.3014C19.2534 17.3293 19.2534 18.0114 19.2534 18.0114H16.375V22.7147H19.2534V36.5374H19.2654Z" fill="white"/>
</svg>
