<svg width="65" height="65" viewBox="0 0 65 65" fill="none" xmlns="http://www.w3.org/2000/svg">
    <path d="M32.0038 64.1367C14.3286 64.1367 0 49.7793 0 32.0684C0 14.3575 14.3286 0 32.0038 0C49.6791 0 64.0077 14.3575 64.0077 32.0684C64.0245 49.7793 49.6791 64.1367 32.0038 64.1367Z" fill="#00AEEF" />
    <path d="M27.1267 51.4476H34.9133V31.8999H40.3453L40.9171 25.3615H34.8965C34.8965 25.3615 34.8965 22.9181 34.8965 21.6374C34.8965 20.087 35.1992 19.4804 36.6959 19.4804C37.89 19.4804 40.9171 19.4804 40.9171 19.4804V12.6892C40.9171 12.6892 36.4773 12.6892 35.5187 12.6892C29.7166 12.6892 27.1099 15.2506 27.1099 20.1376C27.1099 24.401 27.1099 25.3615 27.1099 25.3615H23.0569V31.9842H27.1099V51.4476H27.1267Z" fill="white" />
</svg>
