<svg width="46" height="47" viewBox="0 0 46 47" fill="none" xmlns="http://www.w3.org/2000/svg">
<path d="M22.7287 46.1368C10.1759 46.1368 0 35.9404 0 23.3624C0 10.7843 10.1759 0.587891 22.7287 0.587891C35.2814 0.587891 45.4573 10.7843 45.4573 23.3624C45.4693 35.9404 35.2814 46.1368 22.7287 46.1368Z" fill="#00AEEF"/>
<path d="M19.2651 37.1253H24.795V23.2428H28.6528L29.0588 18.5993H24.783C24.783 18.5993 24.783 16.864 24.783 15.9544C24.783 14.8534 24.998 14.4226 26.061 14.4226C26.909 14.4226 29.0588 14.4226 29.0588 14.4226V9.59961C29.0588 9.59961 25.9057 9.59961 25.225 9.59961C21.1044 9.59961 19.2532 11.4187 19.2532 14.8893C19.2532 17.9171 19.2532 18.5993 19.2532 18.5993H16.3748V23.3026H19.2532V37.1253H19.2651Z" fill="white"/>
</svg>
