<svg width="1440" height="1142" viewBox="0 0 1440 1142" fill="none" xmlns="http://www.w3.org/2000/svg">
    <path fill-rule="evenodd" clip-rule="evenodd" d="M711 926C1262.73 926 1710 669.683 1710 353.5C1710 37.317 1262.73 -219 711 -219C159.268 -219 -288 37.317 -288 353.5C-288 669.683 159.268 926 711 926Z" fill="#00AEEF" />
    <path fill-rule="evenodd" clip-rule="evenodd" d="M1213 1142C1425.08 1142 1597 970.077 1597 758C1597 545.923 1425.08 374 1213 374C1000.92 374 829 545.923 829 758C829 970.077 1000.92 1142 1213 1142Z" fill="white" fill-opacity="0.5" />
    <path fill-rule="evenodd" clip-rule="evenodd" d="M54 1107C205.878 1107 329 983.878 329 832C329 680.122 205.878 557 54 557C-97.8783 557 -221 680.122 -221 832C-221 983.878 -97.8783 1107 54 1107Z" fill="#F05A94" style="mix-blend-mode:multiply" />
</svg>
