<svg width="1141" height="577" viewBox="0 0 1141 577" fill="none" xmlns="http://www.w3.org/2000/svg">
    <path d="M478.664 9.24L472.112 27.312L464.696 8.844H463.688L456.272 27.348L449.72 9.24H446.624L455.66 33.396H456.668L464.192 14.532L471.716 33.396H472.724L481.724 9.24H478.664ZM486.671 33H502.331V30.48H489.479V21.552H498.983V19.032H489.479V11.76H501.899V9.24H486.671V33ZM517.151 33H519.959V21.552H533.279V33H536.087V9.24H533.279V19.032H519.959V9.24H517.151V33ZM542.639 33H558.299V30.48H545.447V21.552H554.951V19.032H545.447V11.76H557.867V9.24H542.639V33ZM563.03 33H577.106V30.48H565.838V9.24H563.03V33ZM581.241 33H584.049V23.064H589.593C594.273 23.064 597.189 20.148 597.189 16.116C597.189 12.12 594.273 9.24 589.593 9.24H581.241V33ZM584.049 20.544V11.76H589.521C592.653 11.76 594.273 13.632 594.273 16.152C594.273 18.708 592.653 20.544 589.521 20.544H584.049ZM626.896 9.24H623.764L617.248 20.4L610.768 9.24H607.6L615.844 23.172V33H618.652V23.172L626.896 9.24ZM641.294 33.396C648.098 33.396 653.642 28.068 653.642 21.12C653.642 14.172 648.098 8.844 641.294 8.844C634.454 8.844 628.982 14.172 628.982 21.12C628.982 28.032 634.418 33.396 641.294 33.396ZM641.33 30.804C635.894 30.804 631.898 26.628 631.898 21.084C631.898 15.576 635.894 11.436 641.33 11.436C646.694 11.436 650.726 15.612 650.726 21.084C650.726 26.628 646.694 30.804 641.33 30.804ZM667.799 33.396C673.163 33.396 677.195 29.904 677.195 23.568V9.24H674.387V23.748C674.387 28.536 671.471 30.804 667.799 30.804C664.091 30.804 661.139 28.536 661.139 23.748V9.24H658.331V23.568C658.331 29.904 662.327 33.396 667.799 33.396ZM708.26 33H711.248L700.952 8.844H699.908L689.612 33H692.564L694.58 28.176H706.244L708.26 33ZM705.164 25.656H695.66L700.412 13.956L705.164 25.656ZM715.643 33H729.719V30.48H718.451V9.24H715.643V33ZM733.854 33H747.93V30.48H736.662V9.24H733.854V33ZM441.143 77H444.131L433.835 52.844H432.791L422.495 77H425.447L427.463 72.176H439.127L441.143 77ZM438.047 69.656H428.543L433.295 57.956L438.047 69.656ZM448.526 77H462.602V74.48H451.334V53.24H448.526V77ZM476.974 77.396C483.778 77.396 489.322 72.068 489.322 65.12C489.322 58.172 483.778 52.844 476.974 52.844C470.134 52.844 464.662 58.172 464.662 65.12C464.662 72.032 470.098 77.396 476.974 77.396ZM477.01 74.804C471.574 74.804 467.578 70.628 467.578 65.084C467.578 59.576 471.574 55.436 477.01 55.436C482.374 55.436 486.406 59.612 486.406 65.084C486.406 70.628 482.374 74.804 477.01 74.804ZM510.463 53.24V71.096L495.343 52.844H494.335V77H497.143V59.18L512.263 77.396H513.271V53.24H510.463ZM530.623 77.396C535.375 77.396 539.407 74.912 541.495 71.24V64.904H530.587V67.424H538.687V70.628C537.103 73.112 534.331 74.876 530.767 74.876C525.187 74.876 521.191 70.628 521.191 65.084C521.191 59.612 525.115 55.436 530.623 55.436C533.863 55.436 536.419 56.912 538.183 59.36L540.307 57.704C538.111 54.68 534.691 52.844 530.623 52.844C523.711 52.844 518.275 58.172 518.275 65.12C518.275 72.032 523.675 77.396 530.623 77.396ZM560.739 77H563.547V55.76H571.935V53.24H552.387V55.76H560.739V77ZM575.897 77H578.705V65.552H592.025V77H594.833V53.24H592.025V63.032H578.705V53.24H575.897V77ZM601.385 77H617.045V74.48H604.193V65.552H613.697V63.032H604.193V55.76H616.613V53.24H601.385V77ZM631.866 77H634.674V67.064H640.218C644.898 67.064 647.814 64.148 647.814 60.116C647.814 56.12 644.898 53.24 640.218 53.24H631.866V77ZM634.674 64.544V55.76H640.146C643.278 55.76 644.898 57.632 644.898 60.152C644.898 62.708 643.278 64.544 640.146 64.544H634.674ZM666.108 77H669.096L658.8 52.844H657.756L647.46 77H650.412L652.428 72.176H664.092L666.108 77ZM663.012 69.656H653.508L658.26 57.956L663.012 69.656ZM676.544 77H679.352V55.76H687.74V53.24H668.192V55.76H676.544V77ZM691.702 77H694.51V65.552H707.83V77H710.638V53.24H707.83V63.032H694.51V53.24H691.702V77ZM731.247 77H734.055V55.76H742.443V53.24H722.895V55.76H731.247V77ZM756.536 77.396C763.34 77.396 768.884 72.068 768.884 65.12C768.884 58.172 763.34 52.844 756.536 52.844C749.696 52.844 744.224 58.172 744.224 65.12C744.224 72.032 749.66 77.396 756.536 77.396ZM756.572 74.804C751.136 74.804 747.14 70.628 747.14 65.084C747.14 59.576 751.136 55.436 756.572 55.436C761.936 55.436 765.968 59.612 765.968 65.084C765.968 70.628 761.936 74.804 756.572 74.804ZM462.418 97.24H459.286L452.77 108.4L446.29 97.24H443.122L451.366 111.172V121H454.174V111.172L462.418 97.24ZM476.815 121.396C483.619 121.396 489.163 116.068 489.163 109.12C489.163 102.172 483.619 96.844 476.815 96.844C469.975 96.844 464.503 102.172 464.503 109.12C464.503 116.032 469.939 121.396 476.815 121.396ZM476.851 118.804C471.415 118.804 467.419 114.628 467.419 109.084C467.419 103.576 471.415 99.436 476.851 99.436C482.215 99.436 486.247 103.612 486.247 109.084C486.247 114.628 482.215 118.804 476.851 118.804ZM503.32 121.396C508.684 121.396 512.716 117.904 512.716 111.568V97.24H509.908V111.748C509.908 116.536 506.992 118.804 503.32 118.804C499.612 118.804 496.66 116.536 496.66 111.748V97.24H493.852V111.568C493.852 117.904 497.848 121.396 503.32 121.396ZM537.537 121L529.941 110.704C533.073 109.804 534.945 107.32 534.945 104.116C534.945 100.12 532.029 97.24 527.349 97.24H518.997V121H521.805V111.028H526.881L534.261 121H537.537ZM521.805 99.76H527.241C530.373 99.76 532.029 101.632 532.029 104.152C532.029 106.708 530.373 108.508 527.241 108.508H521.805V99.76ZM551.481 121H554.289V110.488H564.297V107.932H554.289V99.76H566.349V97.24H551.481V121ZM570.36 121H573.168V97.24H570.36V121ZM598.216 121L590.62 110.704C593.752 109.804 595.624 107.32 595.624 104.116C595.624 100.12 592.708 97.24 588.028 97.24H579.676V121H582.484V111.028H587.56L594.94 121H598.216ZM582.484 99.76H587.92C591.052 99.76 592.708 101.632 592.708 104.152C592.708 106.708 591.052 108.508 587.92 108.508H582.484V99.76ZM608.843 121.396C613.235 121.396 616.511 118.768 616.511 114.772C616.511 111.532 614.423 109.804 610.967 108.148L608.339 106.888C606.179 105.844 604.523 105.052 604.523 102.892C604.523 100.552 606.539 99.436 608.735 99.436C610.895 99.436 612.875 100.516 614.171 102.424L616.223 100.876C614.747 98.536 612.011 96.844 608.771 96.844C604.919 96.844 601.607 99.256 601.607 103.036C601.607 106.564 604.487 108.22 606.971 109.408L609.635 110.668C611.975 111.784 613.595 112.648 613.595 114.844C613.595 117.256 611.615 118.804 608.807 118.804C605.747 118.804 603.623 116.932 602.183 114.736L600.095 116.284C601.931 119.416 605.063 121.396 608.843 121.396ZM627.729 121H630.537V99.76H638.925V97.24H619.377V99.76H627.729V121ZM651.184 121H653.992V109.552H667.312V121H670.12V97.24H667.312V107.032H653.992V97.24H651.184V121ZM687.436 121.396C694.24 121.396 699.784 116.068 699.784 109.12C699.784 102.172 694.24 96.844 687.436 96.844C680.596 96.844 675.124 102.172 675.124 109.12C675.124 116.032 680.56 121.396 687.436 121.396ZM687.472 118.804C682.036 118.804 678.04 114.628 678.04 109.084C678.04 103.576 682.036 99.436 687.472 99.436C692.836 99.436 696.868 103.612 696.868 109.084C696.868 114.628 692.836 118.804 687.472 118.804ZM725.677 96.844L715.705 110.56L705.805 96.844H704.797V121H707.605V103.9L715.237 114.268H716.245L723.841 103.972V121H726.649V96.844H725.677ZM733.204 121H748.864V118.48H736.012V109.552H745.516V107.032H736.012V99.76H748.432V97.24H733.204V121Z" fill="#F05A94" />
    <path d="M453.314 164.198C455.474 164.198 457.292 163.154 458.246 161.642L457.202 160.814C456.32 162.11 454.988 162.902 453.332 162.902C450.65 162.902 448.598 160.832 448.598 158.06C448.598 155.288 450.65 153.218 453.332 153.218C454.988 153.218 456.32 154.01 457.202 155.306L458.246 154.478C457.256 152.966 455.474 151.922 453.314 151.922C449.876 151.922 447.14 154.586 447.14 158.06C447.14 161.534 449.876 164.198 453.314 164.198ZM464.169 164.18C466.743 164.18 468.777 162.146 468.777 159.608C468.777 157.052 466.743 155.036 464.187 155.036C461.613 155.036 459.597 157.034 459.597 159.608C459.597 162.146 461.613 164.18 464.169 164.18ZM464.169 162.902C462.369 162.902 461.019 161.498 461.019 159.626C461.019 157.736 462.369 156.314 464.187 156.314C465.987 156.314 467.355 157.736 467.355 159.626C467.355 161.48 465.969 162.902 464.169 162.902ZM474.939 155.036C473.805 155.036 472.869 155.468 472.239 156.17V155.234H470.943V164H472.329V158.654C472.329 157.286 473.283 156.314 474.633 156.314C475.983 156.314 476.811 157.268 476.811 158.654V164H478.197V158.492C478.197 156.458 477.009 155.036 474.939 155.036ZM483.461 164.198C485.081 164.198 486.539 163.334 486.539 161.624C486.539 160.382 485.783 159.698 484.217 159.032L483.407 158.69C482.435 158.276 481.985 158.006 481.985 157.412C481.985 156.692 482.615 156.314 483.443 156.314C484.271 156.314 485.027 156.692 485.603 157.286L486.449 156.422C485.765 155.576 484.775 155.036 483.515 155.036C481.913 155.036 480.563 155.9 480.563 157.484C480.563 158.726 481.409 159.356 482.741 159.914L483.587 160.274C484.469 160.634 485.117 160.922 485.117 161.678C485.117 162.47 484.361 162.92 483.443 162.92C482.381 162.92 481.643 162.326 480.923 161.57L480.041 162.488C480.743 163.424 481.913 164.198 483.461 164.198ZM496.62 158.996C496.62 156.656 494.874 155.036 492.624 155.036C490.104 155.036 488.142 157.07 488.142 159.626C488.142 162.2 490.14 164.198 492.786 164.198C494.226 164.198 495.414 163.604 496.296 162.668L495.486 161.732C494.766 162.452 493.902 162.92 492.804 162.92C491.076 162.92 489.762 161.786 489.582 160.04H496.512C496.548 159.86 496.62 159.464 496.62 158.996ZM492.588 156.296C493.974 156.296 495.18 157.196 495.198 158.816H489.636C489.942 157.304 491.112 156.296 492.588 156.296ZM502.746 164.198C504.312 164.198 505.572 163.442 506.346 162.29L505.356 161.516C504.708 162.38 503.88 162.92 502.764 162.92C500.928 162.92 499.578 161.462 499.578 159.608C499.578 157.772 500.928 156.314 502.764 156.314C503.898 156.314 504.726 156.872 505.374 157.736L506.364 156.944C505.59 155.792 504.33 155.036 502.746 155.036C500.19 155.036 498.156 157.052 498.156 159.608C498.156 162.182 500.19 164.198 502.746 164.198ZM512.048 162.938C510.95 162.938 510.194 162.578 510.194 161.264V156.476H512.93V155.234H510.194V152.84H508.808V155.234H507.332V156.476H508.808V161.354C508.808 163.352 510.032 164.198 511.76 164.198C512.318 164.198 512.768 164.108 513.218 164V162.83C512.768 162.902 512.39 162.938 512.048 162.938ZM522.687 158.996C522.687 156.656 520.941 155.036 518.691 155.036C516.171 155.036 514.209 157.07 514.209 159.626C514.209 162.2 516.207 164.198 518.853 164.198C520.293 164.198 521.481 163.604 522.363 162.668L521.553 161.732C520.833 162.452 519.969 162.92 518.871 162.92C517.143 162.92 515.829 161.786 515.649 160.04H522.579C522.615 159.86 522.687 159.464 522.687 158.996ZM518.655 156.296C520.041 156.296 521.247 157.196 521.265 158.816H515.703C516.009 157.304 517.179 156.296 518.655 156.296ZM528.471 162.938C527.373 162.938 526.617 162.578 526.617 161.264V156.476H529.353V155.234H526.617V152.84H525.231V155.234H523.755V156.476H525.231V161.354C525.231 163.352 526.455 164.198 528.183 164.198C528.741 164.198 529.191 164.108 529.641 164V162.83C529.191 162.902 528.813 162.938 528.471 162.938ZM534.966 164.198C536.982 164.198 538.584 162.758 538.584 160.508V155.234H537.198V160.598C537.198 162.038 536.19 162.92 534.966 162.92C533.706 162.92 532.698 162.038 532.698 160.598V155.234H531.33V160.508C531.33 162.758 532.914 164.198 534.966 164.198ZM545.254 155.162C544.21 155.162 543.184 155.612 542.536 156.476V155.234H541.24V164H542.626V159.032C542.626 157.358 543.958 156.458 545.38 156.458H545.902V155.234C545.722 155.198 545.542 155.162 545.254 155.162ZM555.417 155.036C554.013 155.036 552.681 155.63 551.853 156.962L552.771 157.718C553.455 156.836 554.229 156.314 555.327 156.314C556.623 156.314 557.451 157.052 557.451 158.528V159.284H554.679C552.771 159.284 551.529 160.256 551.529 161.732C551.529 163.262 552.825 164.198 554.589 164.198C555.885 164.198 556.911 163.712 557.541 162.866V164H558.837V158.6C558.837 156.242 557.415 155.036 555.417 155.036ZM554.769 163.046C553.797 163.046 552.951 162.596 552.951 161.66C552.951 160.832 553.617 160.418 554.841 160.418H557.451V160.634C557.451 162.002 556.209 163.046 554.769 163.046ZM568.454 150.5V156.53C567.752 155.594 566.528 155.036 565.214 155.036C562.712 155.036 560.876 157.034 560.876 159.626C560.876 162.2 562.712 164.198 565.214 164.198C566.582 164.198 567.842 163.604 568.526 162.614V164H569.84V150.5H568.454ZM565.412 162.92C563.612 162.92 562.298 161.516 562.298 159.608C562.298 157.7 563.63 156.314 565.412 156.314C566.924 156.314 568.472 157.322 568.472 159.626C568.472 161.93 566.924 162.92 565.412 162.92ZM573.311 152.894C573.869 152.894 574.337 152.462 574.337 151.886C574.337 151.328 573.869 150.878 573.311 150.878C572.735 150.878 572.267 151.328 572.267 151.886C572.267 152.462 572.735 152.894 573.311 152.894ZM572.609 164H573.995V155.234H572.609V164ZM581.377 155.036C580.009 155.036 578.749 155.63 578.065 156.638V155.234H576.769V167.24H578.155V162.74C578.875 163.658 580.099 164.198 581.377 164.198C583.879 164.198 585.715 162.2 585.715 159.608C585.715 157.034 583.897 155.036 581.377 155.036ZM581.179 162.92C579.649 162.92 578.137 161.912 578.137 159.608C578.137 157.304 579.667 156.314 581.179 156.314C582.979 156.314 584.293 157.718 584.293 159.626C584.293 161.534 582.961 162.92 581.179 162.92ZM588.574 152.894C589.132 152.894 589.6 152.462 589.6 151.886C589.6 151.328 589.132 150.878 588.574 150.878C587.998 150.878 587.53 151.328 587.53 151.886C587.53 152.462 587.998 152.894 588.574 152.894ZM587.872 164H589.258V155.234H587.872V164ZM594.624 164.198C596.244 164.198 597.702 163.334 597.702 161.624C597.702 160.382 596.946 159.698 595.38 159.032L594.57 158.69C593.598 158.276 593.148 158.006 593.148 157.412C593.148 156.692 593.778 156.314 594.606 156.314C595.434 156.314 596.19 156.692 596.766 157.286L597.612 156.422C596.928 155.576 595.938 155.036 594.678 155.036C593.076 155.036 591.726 155.9 591.726 157.484C591.726 158.726 592.572 159.356 593.904 159.914L594.75 160.274C595.632 160.634 596.28 160.922 596.28 161.678C596.28 162.47 595.524 162.92 594.606 162.92C593.544 162.92 592.806 162.326 592.086 161.57L591.204 162.488C591.906 163.424 593.076 164.198 594.624 164.198ZM603.896 164.198C605.462 164.198 606.722 163.442 607.496 162.29L606.506 161.516C605.858 162.38 605.03 162.92 603.914 162.92C602.078 162.92 600.728 161.462 600.728 159.608C600.728 157.772 602.078 156.314 603.914 156.314C605.048 156.314 605.876 156.872 606.524 157.736L607.514 156.944C606.74 155.792 605.48 155.036 603.896 155.036C601.34 155.036 599.306 157.052 599.306 159.608C599.306 162.182 601.34 164.198 603.896 164.198ZM610.282 152.894C610.84 152.894 611.308 152.462 611.308 151.886C611.308 151.328 610.84 150.878 610.282 150.878C609.706 150.878 609.238 151.328 609.238 151.886C609.238 152.462 609.706 152.894 610.282 152.894ZM609.58 164H610.966V155.234H609.58V164ZM617.736 155.036C616.602 155.036 615.666 155.468 615.036 156.17V155.234H613.74V164H615.126V158.654C615.126 157.286 616.08 156.314 617.43 156.314C618.78 156.314 619.608 157.268 619.608 158.654V164H620.994V158.492C620.994 156.458 619.806 155.036 617.736 155.036ZM630.775 155.234V156.638C630.091 155.63 628.831 155.036 627.445 155.036C624.979 155.036 623.143 156.944 623.143 159.482C623.143 162.038 624.979 163.91 627.445 163.91C628.759 163.91 630.001 163.37 630.703 162.452V163.226C630.703 165.17 629.569 166.16 627.787 166.16C626.347 166.16 625.357 165.512 624.511 164.774L623.701 165.746C624.565 166.61 625.987 167.438 627.823 167.438C630.379 167.438 632.089 165.854 632.089 163.154V155.234H630.775ZM627.661 162.632C625.879 162.632 624.547 161.354 624.547 159.5C624.547 157.646 625.879 156.35 627.661 156.35C629.173 156.35 630.721 157.286 630.721 159.482C630.721 161.678 629.191 162.632 627.661 162.632ZM647.479 158.996C647.479 156.656 645.733 155.036 643.483 155.036C640.963 155.036 639.001 157.07 639.001 159.626C639.001 162.2 640.999 164.198 643.645 164.198C645.085 164.198 646.273 163.604 647.155 162.668L646.345 161.732C645.625 162.452 644.761 162.92 643.663 162.92C641.935 162.92 640.621 161.786 640.441 160.04H647.371C647.407 159.86 647.479 159.464 647.479 158.996ZM643.447 156.296C644.833 156.296 646.039 157.196 646.057 158.816H640.495C640.801 157.304 641.971 156.296 643.447 156.296ZM649.644 164H651.03V150.5H649.644V164ZM654.506 152.894C655.064 152.894 655.532 152.462 655.532 151.886C655.532 151.328 655.064 150.878 654.506 150.878C653.93 150.878 653.462 151.328 653.462 151.886C653.462 152.462 653.93 152.894 654.506 152.894ZM653.804 164H655.19V155.234H653.804V164ZM661.581 162.938C660.483 162.938 659.727 162.578 659.727 161.264V156.476H662.463V155.234H659.727V152.84H658.341V155.234H656.865V156.476H658.341V161.354C658.341 163.352 659.565 164.198 661.293 164.198C661.851 164.198 662.301 164.108 662.751 164V162.83C662.301 162.902 661.923 162.938 661.581 162.938ZM665.539 164.198C666.151 164.198 666.673 163.73 666.673 163.064C666.673 162.398 666.151 161.93 665.539 161.93C664.927 161.93 664.405 162.398 664.405 163.064C664.405 163.73 664.927 164.198 665.539 164.198ZM674.207 164H675.611V159.032H678.383C680.723 159.032 682.181 157.574 682.181 155.558C682.181 153.56 680.723 152.12 678.383 152.12H674.207V164ZM675.611 157.772V153.38H678.347C679.913 153.38 680.723 154.316 680.723 155.576C680.723 156.854 679.913 157.772 678.347 157.772H675.611ZM688.161 155.036C687.027 155.036 686.127 155.486 685.533 156.224V150.5H684.147V164H685.533V158.672C685.533 157.304 686.487 156.314 687.837 156.314C689.187 156.314 690.015 157.286 690.015 158.672V164H691.401V158.492C691.401 156.458 690.213 155.036 688.161 155.036ZM697.222 155.036C695.818 155.036 694.486 155.63 693.658 156.962L694.576 157.718C695.26 156.836 696.034 156.314 697.132 156.314C698.428 156.314 699.256 157.052 699.256 158.528V159.284H696.484C694.576 159.284 693.334 160.256 693.334 161.732C693.334 163.262 694.63 164.198 696.394 164.198C697.69 164.198 698.716 163.712 699.346 162.866V164H700.642V158.6C700.642 156.242 699.22 155.036 697.222 155.036ZM696.574 163.046C695.602 163.046 694.756 162.596 694.756 161.66C694.756 160.832 695.422 160.418 696.646 160.418H699.256V160.634C699.256 162.002 698.014 163.046 696.574 163.046ZM705.904 164.198C707.524 164.198 708.982 163.334 708.982 161.624C708.982 160.382 708.226 159.698 706.66 159.032L705.85 158.69C704.878 158.276 704.428 158.006 704.428 157.412C704.428 156.692 705.058 156.314 705.886 156.314C706.714 156.314 707.47 156.692 708.046 157.286L708.892 156.422C708.208 155.576 707.218 155.036 705.958 155.036C704.356 155.036 703.006 155.9 703.006 157.484C703.006 158.726 703.852 159.356 705.184 159.914L706.03 160.274C706.912 160.634 707.56 160.922 707.56 161.678C707.56 162.47 706.804 162.92 705.886 162.92C704.824 162.92 704.086 162.326 703.366 161.57L702.484 162.488C703.186 163.424 704.356 164.198 705.904 164.198ZM719.064 158.996C719.064 156.656 717.318 155.036 715.068 155.036C712.548 155.036 710.586 157.07 710.586 159.626C710.586 162.2 712.584 164.198 715.23 164.198C716.67 164.198 717.858 163.604 718.74 162.668L717.93 161.732C717.21 162.452 716.346 162.92 715.248 162.92C713.52 162.92 712.206 161.786 712.026 160.04H718.956C718.992 159.86 719.064 159.464 719.064 158.996ZM715.032 156.296C716.418 156.296 717.624 157.196 717.642 158.816H712.08C712.386 157.304 713.556 156.296 715.032 156.296ZM721.229 164H722.615V150.5H721.229V164ZM725.389 164H726.775V150.5H725.389V164ZM733.076 164.198C735.092 164.198 736.694 162.758 736.694 160.508V155.234H735.308V160.598C735.308 162.038 734.3 162.92 733.076 162.92C731.816 162.92 730.808 162.038 730.808 160.598V155.234H729.44V160.508C729.44 162.758 731.024 164.198 733.076 164.198ZM741.943 164.198C743.563 164.198 745.021 163.334 745.021 161.624C745.021 160.382 744.265 159.698 742.699 159.032L741.889 158.69C740.917 158.276 740.467 158.006 740.467 157.412C740.467 156.692 741.097 156.314 741.925 156.314C742.753 156.314 743.509 156.692 744.085 157.286L744.931 156.422C744.247 155.576 743.257 155.036 741.997 155.036C740.395 155.036 739.045 155.9 739.045 157.484C739.045 158.726 739.891 159.356 741.223 159.914L742.069 160.274C742.951 160.634 743.599 160.922 743.599 161.678C743.599 162.47 742.843 162.92 741.925 162.92C740.863 162.92 740.125 162.326 739.405 161.57L738.523 162.488C739.225 163.424 740.395 164.198 741.943 164.198ZM414.511 183.036C413.143 183.036 411.883 183.63 411.199 184.638V183.234H409.903V195.24H411.289V190.74C412.009 191.658 413.233 192.198 414.511 192.198C417.013 192.198 418.849 190.2 418.849 187.608C418.849 185.034 417.031 183.036 414.511 183.036ZM414.313 190.92C412.783 190.92 411.271 189.912 411.271 187.608C411.271 185.304 412.801 184.314 414.313 184.314C416.113 184.314 417.427 185.718 417.427 187.626C417.427 189.534 416.095 190.92 414.313 190.92ZM428.854 186.996C428.854 184.656 427.108 183.036 424.858 183.036C422.338 183.036 420.376 185.07 420.376 187.626C420.376 190.2 422.374 192.198 425.02 192.198C426.46 192.198 427.648 191.604 428.53 190.668L427.72 189.732C427 190.452 426.136 190.92 425.038 190.92C423.31 190.92 421.996 189.786 421.816 188.04H428.746C428.782 187.86 428.854 187.464 428.854 186.996ZM424.822 184.296C426.208 184.296 427.414 185.196 427.432 186.816H421.87C422.176 185.304 423.346 184.296 424.822 184.296ZM431.019 192H432.405V178.5H431.019V192ZM435.179 192H436.565V178.5H435.179V192ZM447.186 186.996C447.186 184.656 445.44 183.036 443.19 183.036C440.67 183.036 438.708 185.07 438.708 187.626C438.708 190.2 440.706 192.198 443.352 192.198C444.792 192.198 445.98 191.604 446.862 190.668L446.052 189.732C445.332 190.452 444.468 190.92 443.37 190.92C441.642 190.92 440.328 189.786 440.148 188.04H447.078C447.114 187.86 447.186 187.464 447.186 186.996ZM443.154 184.296C444.54 184.296 445.746 185.196 445.764 186.816H440.202C440.508 185.304 441.678 184.296 443.154 184.296ZM453.348 183.036C452.214 183.036 451.278 183.468 450.648 184.17V183.234H449.352V192H450.738V186.654C450.738 185.286 451.692 184.314 453.042 184.314C454.392 184.314 455.22 185.268 455.22 186.654V192H456.606V186.492C456.606 184.458 455.418 183.036 453.348 183.036ZM462.895 190.938C461.797 190.938 461.041 190.578 461.041 189.264V184.476H463.777V183.234H461.041V180.84H459.655V183.234H458.179V184.476H459.655V189.354C459.655 191.352 460.879 192.198 462.607 192.198C463.165 192.198 463.615 192.108 464.065 192V190.83C463.615 190.902 463.237 190.938 462.895 190.938ZM473.535 186.996C473.535 184.656 471.789 183.036 469.539 183.036C467.019 183.036 465.057 185.07 465.057 187.626C465.057 190.2 467.055 192.198 469.701 192.198C471.141 192.198 472.329 191.604 473.211 190.668L472.401 189.732C471.681 190.452 470.817 190.92 469.719 190.92C467.991 190.92 466.677 189.786 466.497 188.04H473.427C473.463 187.86 473.535 187.464 473.535 186.996ZM469.503 184.296C470.889 184.296 472.095 185.196 472.113 186.816H466.551C466.857 185.304 468.027 184.296 469.503 184.296ZM478.292 192.198C479.912 192.198 481.37 191.334 481.37 189.624C481.37 188.382 480.614 187.698 479.048 187.032L478.238 186.69C477.266 186.276 476.816 186.006 476.816 185.412C476.816 184.692 477.446 184.314 478.274 184.314C479.102 184.314 479.858 184.692 480.434 185.286L481.28 184.422C480.596 183.576 479.606 183.036 478.346 183.036C476.744 183.036 475.394 183.9 475.394 185.484C475.394 186.726 476.24 187.356 477.572 187.914L478.418 188.274C479.3 188.634 479.948 188.922 479.948 189.678C479.948 190.47 479.192 190.92 478.274 190.92C477.212 190.92 476.474 190.326 475.754 189.57L474.872 190.488C475.574 191.424 476.744 192.198 478.292 192.198ZM490.624 183.234V184.638C489.94 183.63 488.68 183.036 487.312 183.036C484.81 183.036 482.974 185.034 482.974 187.608C482.974 190.2 484.81 192.198 487.312 192.198C488.608 192.198 489.85 191.658 490.552 190.722V195.24H491.938V183.234H490.624ZM487.51 190.92C485.728 190.92 484.396 189.534 484.396 187.626C484.396 185.736 485.71 184.314 487.51 184.314C489.022 184.314 490.57 185.304 490.57 187.608C490.57 189.912 489.022 190.92 487.51 190.92ZM498.235 192.198C500.251 192.198 501.853 190.758 501.853 188.508V183.234H500.467V188.598C500.467 190.038 499.459 190.92 498.235 190.92C496.975 190.92 495.967 190.038 495.967 188.598V183.234H494.599V188.508C494.599 190.758 496.183 192.198 498.235 192.198ZM512.357 186.996C512.357 184.656 510.611 183.036 508.361 183.036C505.841 183.036 503.879 185.07 503.879 187.626C503.879 190.2 505.877 192.198 508.523 192.198C509.963 192.198 511.151 191.604 512.033 190.668L511.223 189.732C510.503 190.452 509.639 190.92 508.541 190.92C506.813 190.92 505.499 189.786 505.319 188.04H512.249C512.285 187.86 512.357 187.464 512.357 186.996ZM508.325 184.296C509.711 184.296 510.917 185.196 510.935 186.816H505.373C505.679 185.304 506.849 184.296 508.325 184.296ZM524.98 183.234L522.082 189.84L519.166 183.234H517.69L521.83 192.198H522.334L526.456 183.234H524.98ZM535.682 186.996C535.682 184.656 533.936 183.036 531.686 183.036C529.166 183.036 527.204 185.07 527.204 187.626C527.204 190.2 529.202 192.198 531.848 192.198C533.288 192.198 534.476 191.604 535.358 190.668L534.548 189.732C533.828 190.452 532.964 190.92 531.866 190.92C530.138 190.92 528.824 189.786 528.644 188.04H535.574C535.61 187.86 535.682 187.464 535.682 186.996ZM531.65 184.296C533.036 184.296 534.242 185.196 534.26 186.816H528.698C529.004 185.304 530.174 184.296 531.65 184.296ZM540.439 192.198C542.059 192.198 543.517 191.334 543.517 189.624C543.517 188.382 542.761 187.698 541.195 187.032L540.385 186.69C539.413 186.276 538.963 186.006 538.963 185.412C538.963 184.692 539.593 184.314 540.421 184.314C541.249 184.314 542.005 184.692 542.581 185.286L543.427 184.422C542.743 183.576 541.753 183.036 540.493 183.036C538.891 183.036 537.541 183.9 537.541 185.484C537.541 186.726 538.387 187.356 539.719 187.914L540.565 188.274C541.447 188.634 542.095 188.922 542.095 189.678C542.095 190.47 541.339 190.92 540.421 190.92C539.359 190.92 538.621 190.326 537.901 189.57L537.019 190.488C537.721 191.424 538.891 192.198 540.439 192.198ZM549.369 190.938C548.271 190.938 547.515 190.578 547.515 189.264V184.476H550.251V183.234H547.515V180.84H546.129V183.234H544.653V184.476H546.129V189.354C546.129 191.352 547.353 192.198 549.081 192.198C549.639 192.198 550.089 192.108 550.539 192V190.83C550.089 190.902 549.711 190.938 549.369 190.938ZM553.038 180.894C553.596 180.894 554.064 180.462 554.064 179.886C554.064 179.328 553.596 178.878 553.038 178.878C552.462 178.878 551.994 179.328 551.994 179.886C551.994 180.462 552.462 180.894 553.038 180.894ZM552.336 192H553.722V183.234H552.336V192ZM561.104 183.036C559.79 183.036 558.584 183.594 557.882 184.512V178.5H556.496V192H557.792V190.614C558.476 191.604 559.754 192.198 561.122 192.198C563.624 192.198 565.442 190.2 565.442 187.626C565.442 185.034 563.606 183.036 561.104 183.036ZM560.906 190.92C559.394 190.92 557.864 189.93 557.864 187.626C557.864 185.322 559.376 184.314 560.906 184.314C562.688 184.314 564.02 185.7 564.02 187.608C564.02 189.516 562.706 190.92 560.906 190.92ZM571.127 192.198C573.143 192.198 574.745 190.758 574.745 188.508V183.234H573.359V188.598C573.359 190.038 572.351 190.92 571.127 190.92C569.867 190.92 568.859 190.038 568.859 188.598V183.234H567.491V188.508C567.491 190.758 569.075 192.198 571.127 192.198ZM577.401 192H578.787V178.5H577.401V192ZM585.089 192.198C587.105 192.198 588.707 190.758 588.707 188.508V183.234H587.321V188.598C587.321 190.038 586.313 190.92 585.089 190.92C583.829 190.92 582.821 190.038 582.821 188.598V183.234H581.453V188.508C581.453 190.758 583.037 192.198 585.089 192.198ZM600.975 183.036C599.625 183.036 598.581 183.666 597.969 184.548C597.483 183.63 596.583 183.036 595.269 183.036C594.171 183.036 593.271 183.45 592.659 184.152V183.234H591.363V192H592.749V186.672C592.749 185.286 593.649 184.314 594.981 184.314C596.277 184.314 597.069 185.286 597.069 186.672V192H598.455V186.546C598.455 185.322 599.373 184.314 600.705 184.314C602.019 184.314 602.775 185.286 602.775 186.672V192H604.161V186.492C604.161 184.458 603.027 183.036 600.975 183.036ZM615.597 183.036C614.463 183.036 613.527 183.468 612.897 184.17V183.234H611.601V192H612.987V186.654C612.987 185.286 613.941 184.314 615.291 184.314C616.641 184.314 617.469 185.268 617.469 186.654V192H618.855V186.492C618.855 184.458 617.667 183.036 615.597 183.036ZM625.054 192.198C627.07 192.198 628.672 190.758 628.672 188.508V183.234H627.286V188.598C627.286 190.038 626.278 190.92 625.054 190.92C623.794 190.92 622.786 190.038 622.786 188.598V183.234H621.418V188.508C621.418 190.758 623.002 192.198 625.054 192.198ZM635.324 183.036C634.19 183.036 633.254 183.468 632.624 184.17V183.234H631.328V192H632.714V186.654C632.714 185.286 633.668 184.314 635.018 184.314C636.368 184.314 637.196 185.268 637.196 186.654V192H638.582V186.492C638.582 184.458 637.394 183.036 635.324 183.036ZM645.213 192.198C646.779 192.198 648.039 191.442 648.813 190.29L647.823 189.516C647.175 190.38 646.347 190.92 645.231 190.92C643.395 190.92 642.045 189.462 642.045 187.608C642.045 185.772 643.395 184.314 645.231 184.314C646.365 184.314 647.193 184.872 647.841 185.736L648.831 184.944C648.057 183.792 646.797 183.036 645.213 183.036C642.657 183.036 640.623 185.052 640.623 187.608C640.623 190.182 642.657 192.198 645.213 192.198ZM663.52 186.996C663.52 184.656 661.774 183.036 659.524 183.036C657.004 183.036 655.042 185.07 655.042 187.626C655.042 190.2 657.04 192.198 659.686 192.198C661.126 192.198 662.314 191.604 663.196 190.668L662.386 189.732C661.666 190.452 660.802 190.92 659.704 190.92C657.976 190.92 656.662 189.786 656.482 188.04H663.412C663.448 187.86 663.52 187.464 663.52 186.996ZM659.488 184.296C660.874 184.296 662.08 185.196 662.098 186.816H656.536C656.842 185.304 658.012 184.296 659.488 184.296ZM669.214 192.198C671.23 192.198 672.832 190.758 672.832 188.508V183.234H671.446V188.598C671.446 190.038 670.438 190.92 669.214 190.92C667.954 190.92 666.946 190.038 666.946 188.598V183.234H665.578V188.508C665.578 190.758 667.162 192.198 669.214 192.198ZM680.965 180.894C681.523 180.894 681.991 180.462 681.991 179.886C681.991 179.328 681.523 178.878 680.965 178.878C680.389 178.878 679.921 179.328 679.921 179.886C679.921 180.462 680.389 180.894 680.965 180.894ZM680.263 192H681.649V183.234H680.263V192ZM687.573 183.036C686.169 183.036 684.837 183.63 684.009 184.962L684.927 185.718C685.611 184.836 686.385 184.314 687.483 184.314C688.779 184.314 689.607 185.052 689.607 186.528V187.284H686.835C684.927 187.284 683.685 188.256 683.685 189.732C683.685 191.262 684.981 192.198 686.745 192.198C688.041 192.198 689.067 191.712 689.697 190.866V192H690.993V186.6C690.993 184.242 689.571 183.036 687.573 183.036ZM686.925 191.046C685.953 191.046 685.107 190.596 685.107 189.66C685.107 188.832 685.773 188.418 686.997 188.418H689.607V188.634C689.607 190.002 688.365 191.046 686.925 191.046ZM697.622 192.198C699.188 192.198 700.448 191.442 701.222 190.29L700.232 189.516C699.584 190.38 698.756 190.92 697.64 190.92C695.804 190.92 694.454 189.462 694.454 187.608C694.454 185.772 695.804 184.314 697.64 184.314C698.774 184.314 699.602 184.872 700.25 185.736L701.24 184.944C700.466 183.792 699.206 183.036 697.622 183.036C695.066 183.036 693.032 185.052 693.032 187.608C693.032 190.182 695.066 192.198 697.622 192.198ZM706.834 192.198C708.85 192.198 710.452 190.758 710.452 188.508V183.234H709.066V188.598C709.066 190.038 708.058 190.92 706.834 190.92C705.574 190.92 704.566 190.038 704.566 188.598V183.234H703.198V188.508C703.198 190.758 704.782 192.198 706.834 192.198ZM713.109 192H714.495V178.5H713.109V192ZM717.97 180.894C718.528 180.894 718.996 180.462 718.996 179.886C718.996 179.328 718.528 178.878 717.97 178.878C717.394 178.878 716.926 179.328 716.926 179.886C716.926 180.462 717.394 180.894 717.97 180.894ZM717.268 192H718.654V183.234H717.268V192ZM724.02 192.198C725.64 192.198 727.098 191.334 727.098 189.624C727.098 188.382 726.342 187.698 724.776 187.032L723.966 186.69C722.994 186.276 722.544 186.006 722.544 185.412C722.544 184.692 723.174 184.314 724.002 184.314C724.83 184.314 725.586 184.692 726.162 185.286L727.008 184.422C726.324 183.576 725.334 183.036 724.074 183.036C722.472 183.036 721.122 183.9 721.122 185.484C721.122 186.726 721.968 187.356 723.3 187.914L724.146 188.274C725.028 188.634 725.676 188.922 725.676 189.678C725.676 190.47 724.92 190.92 724.002 190.92C722.94 190.92 722.202 190.326 721.482 189.57L720.6 190.488C721.302 191.424 722.472 192.198 724.02 192.198ZM730.322 192.198C730.934 192.198 731.456 191.73 731.456 191.064C731.456 190.398 730.934 189.93 730.322 189.93C729.71 189.93 729.188 190.398 729.188 191.064C729.188 191.73 729.71 192.198 730.322 192.198ZM734.215 192H741.253V190.74H735.619V180.12H734.215V192ZM746.831 192.18C749.405 192.18 751.439 190.146 751.439 187.608C751.439 185.052 749.405 183.036 746.849 183.036C744.275 183.036 742.259 185.034 742.259 187.608C742.259 190.146 744.275 192.18 746.831 192.18ZM746.831 190.902C745.031 190.902 743.681 189.498 743.681 187.626C743.681 185.736 745.031 184.314 746.849 184.314C748.649 184.314 750.017 185.736 750.017 187.626C750.017 189.48 748.631 190.902 746.831 190.902ZM757.62 183.162C756.576 183.162 755.55 183.612 754.902 184.476V183.234H753.606V192H754.992V187.032C754.992 185.358 756.324 184.458 757.746 184.458H758.268V183.234C758.088 183.198 757.908 183.162 757.62 183.162ZM767.53 186.996C767.53 184.656 765.784 183.036 763.534 183.036C761.014 183.036 759.052 185.07 759.052 187.626C759.052 190.2 761.05 192.198 763.696 192.198C765.136 192.198 766.324 191.604 767.206 190.668L766.396 189.732C765.676 190.452 764.812 190.92 763.714 190.92C761.986 190.92 760.672 189.786 760.492 188.04H767.422C767.458 187.86 767.53 187.464 767.53 186.996ZM763.498 184.296C764.884 184.296 766.09 185.196 766.108 186.816H760.546C760.852 185.304 762.022 184.296 763.498 184.296ZM779.307 183.036C777.957 183.036 776.913 183.666 776.301 184.548C775.815 183.63 774.915 183.036 773.601 183.036C772.503 183.036 771.603 183.45 770.991 184.152V183.234H769.695V192H771.081V186.672C771.081 185.286 771.981 184.314 773.313 184.314C774.609 184.314 775.401 185.286 775.401 186.672V192H776.787V186.546C776.787 185.322 777.705 184.314 779.037 184.314C780.351 184.314 781.107 185.286 781.107 186.672V192H782.493V186.492C782.493 184.458 781.359 183.036 779.307 183.036ZM418.582 208.894C419.14 208.894 419.608 208.462 419.608 207.886C419.608 207.328 419.14 206.878 418.582 206.878C418.006 206.878 417.538 207.328 417.538 207.886C417.538 208.462 418.006 208.894 418.582 208.894ZM417.88 220H419.266V211.234H417.88V220ZM426.648 211.036C425.28 211.036 424.02 211.63 423.336 212.638V211.234H422.04V223.24H423.426V218.74C424.146 219.658 425.37 220.198 426.648 220.198C429.15 220.198 430.986 218.2 430.986 215.608C430.986 213.034 429.168 211.036 426.648 211.036ZM426.45 218.92C424.92 218.92 423.408 217.912 423.408 215.608C423.408 213.304 424.938 212.314 426.45 212.314C428.25 212.314 429.564 213.718 429.564 215.626C429.564 217.534 428.232 218.92 426.45 218.92ZM435.735 220.198C437.355 220.198 438.813 219.334 438.813 217.624C438.813 216.382 438.057 215.698 436.491 215.032L435.681 214.69C434.709 214.276 434.259 214.006 434.259 213.412C434.259 212.692 434.889 212.314 435.717 212.314C436.545 212.314 437.301 212.692 437.877 213.286L438.723 212.422C438.039 211.576 437.049 211.036 435.789 211.036C434.187 211.036 432.837 211.9 432.837 213.484C432.837 214.726 433.683 215.356 435.015 215.914L435.861 216.274C436.743 216.634 437.391 216.922 437.391 217.678C437.391 218.47 436.635 218.92 435.717 218.92C434.655 218.92 433.917 218.326 433.197 217.57L432.315 218.488C433.017 219.424 434.187 220.198 435.735 220.198ZM444.575 220.198C446.591 220.198 448.193 218.758 448.193 216.508V211.234H446.807V216.598C446.807 218.038 445.799 218.92 444.575 218.92C443.315 218.92 442.307 218.038 442.307 216.598V211.234H440.939V216.508C440.939 218.758 442.523 220.198 444.575 220.198ZM460.461 211.036C459.111 211.036 458.067 211.666 457.455 212.548C456.969 211.63 456.069 211.036 454.755 211.036C453.657 211.036 452.757 211.45 452.145 212.152V211.234H450.849V220H452.235V214.672C452.235 213.286 453.135 212.314 454.467 212.314C455.763 212.314 456.555 213.286 456.555 214.672V220H457.941V214.546C457.941 213.322 458.859 212.314 460.191 212.314C461.505 212.314 462.261 213.286 462.261 214.672V220H463.647V214.492C463.647 212.458 462.513 211.036 460.461 211.036ZM478.034 206.5V212.53C477.332 211.594 476.108 211.036 474.794 211.036C472.292 211.036 470.456 213.034 470.456 215.626C470.456 218.2 472.292 220.198 474.794 220.198C476.162 220.198 477.422 219.604 478.106 218.614V220H479.42V206.5H478.034ZM474.992 218.92C473.192 218.92 471.878 217.516 471.878 215.608C471.878 213.7 473.21 212.314 474.992 212.314C476.504 212.314 478.052 213.322 478.052 215.626C478.052 217.93 476.504 218.92 474.992 218.92ZM486.131 220.18C488.705 220.18 490.739 218.146 490.739 215.608C490.739 213.052 488.705 211.036 486.149 211.036C483.575 211.036 481.559 213.034 481.559 215.608C481.559 218.146 483.575 220.18 486.131 220.18ZM486.131 218.902C484.331 218.902 482.981 217.498 482.981 215.626C482.981 213.736 484.331 212.314 486.149 212.314C487.949 212.314 489.317 213.736 489.317 215.626C489.317 217.48 487.931 218.902 486.131 218.902ZM492.906 220H494.292V206.5H492.906V220ZM501.007 220.18C503.581 220.18 505.615 218.146 505.615 215.608C505.615 213.052 503.581 211.036 501.025 211.036C498.451 211.036 496.435 213.034 496.435 215.608C496.435 218.146 498.451 220.18 501.007 220.18ZM501.007 218.902C499.207 218.902 497.857 217.498 497.857 215.626C497.857 213.736 499.207 212.314 501.025 212.314C502.825 212.314 504.193 213.736 504.193 215.626C504.193 217.48 502.807 218.902 501.007 218.902ZM511.796 211.162C510.752 211.162 509.726 211.612 509.078 212.476V211.234H507.782V220H509.168V215.032C509.168 213.358 510.5 212.458 511.922 212.458H512.444V211.234C512.264 211.198 512.084 211.162 511.796 211.162ZM521.4 220.198C523.02 220.198 524.478 219.334 524.478 217.624C524.478 216.382 523.722 215.698 522.156 215.032L521.346 214.69C520.374 214.276 519.924 214.006 519.924 213.412C519.924 212.692 520.554 212.314 521.382 212.314C522.21 212.314 522.966 212.692 523.542 213.286L524.388 212.422C523.704 211.576 522.714 211.036 521.454 211.036C519.852 211.036 518.502 211.9 518.502 213.484C518.502 214.726 519.348 215.356 520.68 215.914L521.526 216.274C522.408 216.634 523.056 216.922 523.056 217.678C523.056 218.47 522.3 218.92 521.382 218.92C520.32 218.92 519.582 218.326 518.862 217.57L517.98 218.488C518.682 219.424 519.852 220.198 521.4 220.198ZM527.414 208.894C527.972 208.894 528.44 208.462 528.44 207.886C528.44 207.328 527.972 206.878 527.414 206.878C526.838 206.878 526.37 207.328 526.37 207.886C526.37 208.462 526.838 208.894 527.414 208.894ZM526.712 220H528.098V211.234H526.712V220ZM534.49 218.938C533.392 218.938 532.636 218.578 532.636 217.264V212.476H535.372V211.234H532.636V208.84H531.25V211.234H529.774V212.476H531.25V217.354C531.25 219.352 532.474 220.198 534.202 220.198C534.76 220.198 535.21 220.108 535.66 220V218.83C535.21 218.902 534.832 218.938 534.49 218.938ZM545.382 211.036C543.978 211.036 542.646 211.63 541.818 212.962L542.736 213.718C543.42 212.836 544.194 212.314 545.292 212.314C546.588 212.314 547.416 213.052 547.416 214.528V215.284H544.644C542.736 215.284 541.494 216.256 541.494 217.732C541.494 219.262 542.79 220.198 544.554 220.198C545.85 220.198 546.876 219.712 547.506 218.866V220H548.802V214.6C548.802 212.242 547.38 211.036 545.382 211.036ZM544.734 219.046C543.762 219.046 542.916 218.596 542.916 217.66C542.916 216.832 543.582 216.418 544.806 216.418H547.416V216.634C547.416 218.002 546.174 219.046 544.734 219.046ZM561.084 211.036C559.734 211.036 558.69 211.666 558.078 212.548C557.592 211.63 556.692 211.036 555.378 211.036C554.28 211.036 553.38 211.45 552.768 212.152V211.234H551.472V220H552.858V214.672C552.858 213.286 553.758 212.314 555.09 212.314C556.386 212.314 557.178 213.286 557.178 214.672V220H558.564V214.546C558.564 213.322 559.482 212.314 560.814 212.314C562.128 212.314 562.884 213.286 562.884 214.672V220H564.27V214.492C564.27 212.458 563.136 211.036 561.084 211.036ZM574.782 214.996C574.782 212.656 573.036 211.036 570.786 211.036C568.266 211.036 566.304 213.07 566.304 215.626C566.304 218.2 568.302 220.198 570.948 220.198C572.388 220.198 573.576 219.604 574.458 218.668L573.648 217.732C572.928 218.452 572.064 218.92 570.966 218.92C569.238 218.92 567.924 217.786 567.744 216.04H574.674C574.71 215.86 574.782 215.464 574.782 214.996ZM570.75 212.296C572.136 212.296 573.342 213.196 573.36 214.816H567.798C568.104 213.304 569.274 212.296 570.75 212.296ZM580.565 218.938C579.467 218.938 578.711 218.578 578.711 217.264V212.476H581.447V211.234H578.711V208.84H577.325V211.234H575.849V212.476H577.325V217.354C577.325 219.352 578.549 220.198 580.277 220.198C580.835 220.198 581.285 220.108 581.735 220V218.83C581.285 218.902 580.907 218.938 580.565 218.938ZM583.623 223.222H584.757L585.495 218.38H583.857L583.623 223.222ZM597.043 220.198C598.609 220.198 599.869 219.442 600.643 218.29L599.653 217.516C599.005 218.38 598.177 218.92 597.061 218.92C595.225 218.92 593.875 217.462 593.875 215.608C593.875 213.772 595.225 212.314 597.061 212.314C598.195 212.314 599.023 212.872 599.671 213.736L600.661 212.944C599.887 211.792 598.627 211.036 597.043 211.036C594.487 211.036 592.453 213.052 592.453 215.608C592.453 218.182 594.487 220.198 597.043 220.198ZM606.493 220.18C609.067 220.18 611.101 218.146 611.101 215.608C611.101 213.052 609.067 211.036 606.511 211.036C603.937 211.036 601.921 213.034 601.921 215.608C601.921 218.146 603.937 220.18 606.493 220.18ZM606.493 218.902C604.693 218.902 603.343 217.498 603.343 215.626C603.343 213.736 604.693 212.314 606.511 212.314C608.311 212.314 609.679 213.736 609.679 215.626C609.679 217.48 608.293 218.902 606.493 218.902ZM617.263 211.036C616.129 211.036 615.193 211.468 614.563 212.17V211.234H613.267V220H614.653V214.654C614.653 213.286 615.607 212.314 616.957 212.314C618.307 212.314 619.135 213.268 619.135 214.654V220H620.521V214.492C620.521 212.458 619.333 211.036 617.263 211.036ZM625.785 220.198C627.405 220.198 628.863 219.334 628.863 217.624C628.863 216.382 628.107 215.698 626.541 215.032L625.731 214.69C624.759 214.276 624.309 214.006 624.309 213.412C624.309 212.692 624.939 212.314 625.767 212.314C626.595 212.314 627.351 212.692 627.927 213.286L628.773 212.422C628.089 211.576 627.099 211.036 625.839 211.036C624.237 211.036 622.887 211.9 622.887 213.484C622.887 214.726 623.733 215.356 625.065 215.914L625.911 216.274C626.793 216.634 627.441 216.922 627.441 217.678C627.441 218.47 626.685 218.92 625.767 218.92C624.705 218.92 623.967 218.326 623.247 217.57L622.365 218.488C623.067 219.424 624.237 220.198 625.785 220.198ZM638.944 214.996C638.944 212.656 637.198 211.036 634.948 211.036C632.428 211.036 630.466 213.07 630.466 215.626C630.466 218.2 632.464 220.198 635.11 220.198C636.55 220.198 637.738 219.604 638.62 218.668L637.81 217.732C637.09 218.452 636.226 218.92 635.128 218.92C633.4 218.92 632.086 217.786 631.906 216.04H638.836C638.872 215.86 638.944 215.464 638.944 214.996ZM634.912 212.296C636.298 212.296 637.504 213.196 637.522 214.816H631.96C632.266 213.304 633.436 212.296 634.912 212.296ZM645.07 220.198C646.636 220.198 647.896 219.442 648.67 218.29L647.68 217.516C647.032 218.38 646.204 218.92 645.088 218.92C643.252 218.92 641.902 217.462 641.902 215.608C641.902 213.772 643.252 212.314 645.088 212.314C646.222 212.314 647.05 212.872 647.698 213.736L648.688 212.944C647.914 211.792 646.654 211.036 645.07 211.036C642.514 211.036 640.48 213.052 640.48 215.608C640.48 218.182 642.514 220.198 645.07 220.198ZM654.372 218.938C653.274 218.938 652.518 218.578 652.518 217.264V212.476H655.254V211.234H652.518V208.84H651.132V211.234H649.656V212.476H651.132V217.354C651.132 219.352 652.356 220.198 654.084 220.198C654.642 220.198 655.092 220.108 655.542 220V218.83C655.092 218.902 654.714 218.938 654.372 218.938ZM665.011 214.996C665.011 212.656 663.265 211.036 661.015 211.036C658.495 211.036 656.533 213.07 656.533 215.626C656.533 218.2 658.531 220.198 661.177 220.198C662.617 220.198 663.805 219.604 664.687 218.668L663.877 217.732C663.157 218.452 662.293 218.92 661.195 218.92C659.467 218.92 658.153 217.786 657.973 216.04H664.903C664.939 215.86 665.011 215.464 665.011 214.996ZM660.979 212.296C662.365 212.296 663.571 213.196 663.589 214.816H658.027C658.333 213.304 659.503 212.296 660.979 212.296ZM670.795 218.938C669.697 218.938 668.941 218.578 668.941 217.264V212.476H671.677V211.234H668.941V208.84H667.555V211.234H666.079V212.476H667.555V217.354C667.555 219.352 668.779 220.198 670.507 220.198C671.065 220.198 671.515 220.108 671.965 220V218.83C671.515 218.902 671.137 218.938 670.795 218.938ZM677.29 220.198C679.306 220.198 680.908 218.758 680.908 216.508V211.234H679.522V216.598C679.522 218.038 678.514 218.92 677.29 218.92C676.03 218.92 675.022 218.038 675.022 216.598V211.234H673.654V216.508C673.654 218.758 675.238 220.198 677.29 220.198ZM687.578 211.162C686.534 211.162 685.508 211.612 684.86 212.476V211.234H683.564V220H684.95V215.032C684.95 213.358 686.282 212.458 687.704 212.458H688.226V211.234C688.046 211.198 687.866 211.162 687.578 211.162ZM697.741 211.036C696.337 211.036 695.005 211.63 694.177 212.962L695.095 213.718C695.779 212.836 696.553 212.314 697.651 212.314C698.947 212.314 699.775 213.052 699.775 214.528V215.284H697.003C695.095 215.284 693.853 216.256 693.853 217.732C693.853 219.262 695.149 220.198 696.913 220.198C698.209 220.198 699.235 219.712 699.865 218.866V220H701.161V214.6C701.161 212.242 699.739 211.036 697.741 211.036ZM697.093 219.046C696.121 219.046 695.275 218.596 695.275 217.66C695.275 216.832 695.941 216.418 697.165 216.418H699.775V216.634C699.775 218.002 698.533 219.046 697.093 219.046ZM710.779 206.5V212.53C710.077 211.594 708.853 211.036 707.539 211.036C705.037 211.036 703.201 213.034 703.201 215.626C703.201 218.2 705.037 220.198 707.539 220.198C708.907 220.198 710.167 219.604 710.851 218.614V220H712.165V206.5H710.779ZM707.737 218.92C705.937 218.92 704.623 217.516 704.623 215.608C704.623 213.7 705.955 212.314 707.737 212.314C709.249 212.314 710.797 213.322 710.797 215.626C710.797 217.93 709.249 218.92 707.737 218.92ZM715.636 208.894C716.194 208.894 716.662 208.462 716.662 207.886C716.662 207.328 716.194 206.878 715.636 206.878C715.06 206.878 714.592 207.328 714.592 207.886C714.592 208.462 715.06 208.894 715.636 208.894ZM714.934 220H716.32V211.234H714.934V220ZM723.701 211.036C722.333 211.036 721.073 211.63 720.389 212.638V211.234H719.093V223.24H720.479V218.74C721.199 219.658 722.423 220.198 723.701 220.198C726.203 220.198 728.039 218.2 728.039 215.608C728.039 213.034 726.221 211.036 723.701 211.036ZM723.503 218.92C721.973 218.92 720.461 217.912 720.461 215.608C720.461 213.304 721.991 212.314 723.503 212.314C725.303 212.314 726.617 213.718 726.617 215.626C726.617 217.534 725.285 218.92 723.503 218.92ZM730.898 208.894C731.456 208.894 731.924 208.462 731.924 207.886C731.924 207.328 731.456 206.878 730.898 206.878C730.322 206.878 729.854 207.328 729.854 207.886C729.854 208.462 730.322 208.894 730.898 208.894ZM730.196 220H731.582V211.234H730.196V220ZM736.948 220.198C738.568 220.198 740.026 219.334 740.026 217.624C740.026 216.382 739.27 215.698 737.704 215.032L736.894 214.69C735.922 214.276 735.472 214.006 735.472 213.412C735.472 212.692 736.102 212.314 736.93 212.314C737.758 212.314 738.514 212.692 739.09 213.286L739.936 212.422C739.252 211.576 738.262 211.036 737.002 211.036C735.4 211.036 734.05 211.9 734.05 213.484C734.05 214.726 734.896 215.356 736.228 215.914L737.074 216.274C737.956 216.634 738.604 216.922 738.604 217.678C738.604 218.47 737.848 218.92 736.93 218.92C735.868 218.92 735.13 218.326 734.41 217.57L733.528 218.488C734.23 219.424 735.4 220.198 736.948 220.198ZM746.22 220.198C747.786 220.198 749.046 219.442 749.82 218.29L748.83 217.516C748.182 218.38 747.354 218.92 746.238 218.92C744.402 218.92 743.052 217.462 743.052 215.608C743.052 213.772 744.402 212.314 746.238 212.314C747.372 212.314 748.2 212.872 748.848 213.736L749.838 212.944C749.064 211.792 747.804 211.036 746.22 211.036C743.664 211.036 741.63 213.052 741.63 215.608C741.63 218.182 743.664 220.198 746.22 220.198ZM752.606 208.894C753.164 208.894 753.632 208.462 753.632 207.886C753.632 207.328 753.164 206.878 752.606 206.878C752.03 206.878 751.562 207.328 751.562 207.886C751.562 208.462 752.03 208.894 752.606 208.894ZM751.904 220H753.29V211.234H751.904V220ZM760.06 211.036C758.926 211.036 757.99 211.468 757.36 212.17V211.234H756.064V220H757.45V214.654C757.45 213.286 758.404 212.314 759.754 212.314C761.104 212.314 761.932 213.268 761.932 214.654V220H763.318V214.492C763.318 212.458 762.13 211.036 760.06 211.036ZM773.099 211.234V212.638C772.415 211.63 771.155 211.036 769.769 211.036C767.303 211.036 765.467 212.944 765.467 215.482C765.467 218.038 767.303 219.91 769.769 219.91C771.083 219.91 772.325 219.37 773.027 218.452V219.226C773.027 221.17 771.893 222.16 770.111 222.16C768.671 222.16 767.681 221.512 766.835 220.774L766.025 221.746C766.889 222.61 768.311 223.438 770.147 223.438C772.703 223.438 774.413 221.854 774.413 219.154V211.234H773.099ZM769.985 218.632C768.203 218.632 766.871 217.354 766.871 215.5C766.871 213.646 768.203 212.35 769.985 212.35C771.497 212.35 773.045 213.286 773.045 215.482C773.045 217.678 771.515 218.632 769.985 218.632ZM416.386 242.996C416.386 240.656 414.64 239.036 412.39 239.036C409.87 239.036 407.908 241.07 407.908 243.626C407.908 246.2 409.906 248.198 412.552 248.198C413.992 248.198 415.18 247.604 416.062 246.668L415.252 245.732C414.532 246.452 413.668 246.92 412.57 246.92C410.842 246.92 409.528 245.786 409.348 244.04H416.278C416.314 243.86 416.386 243.464 416.386 242.996ZM412.354 240.296C413.74 240.296 414.946 241.196 414.964 242.816H409.402C409.708 241.304 410.878 240.296 412.354 240.296ZM418.551 248H419.937V234.5H418.551V248ZM423.413 236.894C423.971 236.894 424.439 236.462 424.439 235.886C424.439 235.328 423.971 234.878 423.413 234.878C422.837 234.878 422.369 235.328 422.369 235.886C422.369 236.462 422.837 236.894 423.413 236.894ZM422.711 248H424.097V239.234H422.711V248ZM430.489 246.938C429.391 246.938 428.635 246.578 428.635 245.264V240.476H431.371V239.234H428.635V236.84H427.249V239.234H425.773V240.476H427.249V245.354C427.249 247.352 428.473 248.198 430.201 248.198C430.759 248.198 431.209 248.108 431.659 248V246.83C431.209 246.902 430.831 246.938 430.489 246.938ZM434.446 248.198C435.058 248.198 435.58 247.73 435.58 247.064C435.58 246.398 435.058 245.93 434.446 245.93C433.834 245.93 433.312 246.398 433.312 247.064C433.312 247.73 433.834 248.198 434.446 248.198ZM443.114 248H444.518V243.032H447.29C449.63 243.032 451.088 241.574 451.088 239.558C451.088 237.56 449.63 236.12 447.29 236.12H443.114V248ZM444.518 241.772V237.38H447.254C448.82 237.38 449.63 238.316 449.63 239.576C449.63 240.854 448.82 241.772 447.254 241.772H444.518ZM457.068 239.036C455.934 239.036 455.034 239.486 454.44 240.224V234.5H453.054V248H454.44V242.672C454.44 241.304 455.394 240.314 456.744 240.314C458.094 240.314 458.922 241.286 458.922 242.672V248H460.308V242.492C460.308 240.458 459.12 239.036 457.068 239.036ZM466.13 239.036C464.726 239.036 463.394 239.63 462.566 240.962L463.484 241.718C464.168 240.836 464.942 240.314 466.04 240.314C467.336 240.314 468.164 241.052 468.164 242.528V243.284H465.392C463.484 243.284 462.242 244.256 462.242 245.732C462.242 247.262 463.538 248.198 465.302 248.198C466.598 248.198 467.624 247.712 468.254 246.866V248H469.55V242.6C469.55 240.242 468.128 239.036 466.13 239.036ZM465.482 247.046C464.51 247.046 463.664 246.596 463.664 245.66C463.664 244.832 464.33 244.418 465.554 244.418H468.164V244.634C468.164 246.002 466.922 247.046 465.482 247.046ZM474.811 248.198C476.431 248.198 477.889 247.334 477.889 245.624C477.889 244.382 477.133 243.698 475.567 243.032L474.757 242.69C473.785 242.276 473.335 242.006 473.335 241.412C473.335 240.692 473.965 240.314 474.793 240.314C475.621 240.314 476.377 240.692 476.953 241.286L477.799 240.422C477.115 239.576 476.125 239.036 474.865 239.036C473.263 239.036 471.913 239.9 471.913 241.484C471.913 242.726 472.759 243.356 474.091 243.914L474.937 244.274C475.819 244.634 476.467 244.922 476.467 245.678C476.467 246.47 475.711 246.92 474.793 246.92C473.731 246.92 472.993 246.326 472.273 245.57L471.391 246.488C472.093 247.424 473.263 248.198 474.811 248.198ZM487.971 242.996C487.971 240.656 486.225 239.036 483.975 239.036C481.455 239.036 479.493 241.07 479.493 243.626C479.493 246.2 481.491 248.198 484.137 248.198C485.577 248.198 486.765 247.604 487.647 246.668L486.837 245.732C486.117 246.452 485.253 246.92 484.155 246.92C482.427 246.92 481.113 245.786 480.933 244.04H487.863C487.899 243.86 487.971 243.464 487.971 242.996ZM483.939 240.296C485.325 240.296 486.531 241.196 486.549 242.816H480.987C481.293 241.304 482.463 240.296 483.939 240.296ZM490.136 248H491.522V234.5H490.136V248ZM494.296 248H495.682V234.5H494.296V248ZM501.984 248.198C504 248.198 505.602 246.758 505.602 244.508V239.234H504.216V244.598C504.216 246.038 503.208 246.92 501.984 246.92C500.724 246.92 499.716 246.038 499.716 244.598V239.234H498.348V244.508C498.348 246.758 499.932 248.198 501.984 248.198ZM510.85 248.198C512.47 248.198 513.928 247.334 513.928 245.624C513.928 244.382 513.172 243.698 511.606 243.032L510.796 242.69C509.824 242.276 509.374 242.006 509.374 241.412C509.374 240.692 510.004 240.314 510.832 240.314C511.66 240.314 512.416 240.692 512.992 241.286L513.838 240.422C513.154 239.576 512.164 239.036 510.904 239.036C509.302 239.036 507.952 239.9 507.952 241.484C507.952 242.726 508.798 243.356 510.13 243.914L510.976 244.274C511.858 244.634 512.506 244.922 512.506 245.678C512.506 246.47 511.75 246.92 510.832 246.92C509.77 246.92 509.032 246.326 508.312 245.57L507.43 246.488C508.132 247.424 509.302 248.198 510.85 248.198ZM525.545 239.036C524.177 239.036 522.917 239.63 522.233 240.638V239.234H520.937V251.24H522.323V246.74C523.043 247.658 524.267 248.198 525.545 248.198C528.047 248.198 529.883 246.2 529.883 243.608C529.883 241.034 528.065 239.036 525.545 239.036ZM525.347 246.92C523.817 246.92 522.305 245.912 522.305 243.608C522.305 241.304 523.835 240.314 525.347 240.314C527.147 240.314 528.461 241.718 528.461 243.626C528.461 245.534 527.129 246.92 525.347 246.92ZM539.888 242.996C539.888 240.656 538.142 239.036 535.892 239.036C533.372 239.036 531.41 241.07 531.41 243.626C531.41 246.2 533.408 248.198 536.054 248.198C537.494 248.198 538.682 247.604 539.564 246.668L538.754 245.732C538.034 246.452 537.17 246.92 536.072 246.92C534.344 246.92 533.03 245.786 532.85 244.04H539.78C539.816 243.86 539.888 243.464 539.888 242.996ZM535.856 240.296C537.242 240.296 538.448 241.196 538.466 242.816H532.904C533.21 241.304 534.38 240.296 535.856 240.296ZM542.053 248H543.439V234.5H542.053V248ZM546.213 248H547.599V234.5H546.213V248ZM558.22 242.996C558.22 240.656 556.474 239.036 554.224 239.036C551.704 239.036 549.742 241.07 549.742 243.626C549.742 246.2 551.74 248.198 554.386 248.198C555.826 248.198 557.014 247.604 557.896 246.668L557.086 245.732C556.366 246.452 555.502 246.92 554.404 246.92C552.676 246.92 551.362 245.786 551.182 244.04H558.112C558.148 243.86 558.22 243.464 558.22 242.996ZM554.188 240.296C555.574 240.296 556.78 241.196 556.798 242.816H551.236C551.542 241.304 552.712 240.296 554.188 240.296ZM564.382 239.036C563.248 239.036 562.312 239.468 561.682 240.17V239.234H560.386V248H561.772V242.654C561.772 241.286 562.726 240.314 564.076 240.314C565.426 240.314 566.254 241.268 566.254 242.654V248H567.64V242.492C567.64 240.458 566.452 239.036 564.382 239.036ZM573.929 246.938C572.831 246.938 572.075 246.578 572.075 245.264V240.476H574.811V239.234H572.075V236.84H570.689V239.234H569.213V240.476H570.689V245.354C570.689 247.352 571.913 248.198 573.641 248.198C574.199 248.198 574.649 248.108 575.099 248V246.83C574.649 246.902 574.271 246.938 573.929 246.938ZM584.569 242.996C584.569 240.656 582.823 239.036 580.573 239.036C578.053 239.036 576.091 241.07 576.091 243.626C576.091 246.2 578.089 248.198 580.735 248.198C582.175 248.198 583.363 247.604 584.245 246.668L583.435 245.732C582.715 246.452 581.851 246.92 580.753 246.92C579.025 246.92 577.711 245.786 577.531 244.04H584.461C584.497 243.86 584.569 243.464 584.569 242.996ZM580.537 240.296C581.923 240.296 583.129 241.196 583.147 242.816H577.585C577.891 241.304 579.061 240.296 580.537 240.296ZM589.326 248.198C590.946 248.198 592.404 247.334 592.404 245.624C592.404 244.382 591.648 243.698 590.082 243.032L589.272 242.69C588.3 242.276 587.85 242.006 587.85 241.412C587.85 240.692 588.48 240.314 589.308 240.314C590.136 240.314 590.892 240.692 591.468 241.286L592.314 240.422C591.63 239.576 590.64 239.036 589.38 239.036C587.778 239.036 586.428 239.9 586.428 241.484C586.428 242.726 587.274 243.356 588.606 243.914L589.452 244.274C590.334 244.634 590.982 244.922 590.982 245.678C590.982 246.47 590.226 246.92 589.308 246.92C588.246 246.92 587.508 246.326 586.788 245.57L585.906 246.488C586.608 247.424 587.778 248.198 589.326 248.198ZM601.658 239.234V240.638C600.974 239.63 599.714 239.036 598.346 239.036C595.844 239.036 594.008 241.034 594.008 243.608C594.008 246.2 595.844 248.198 598.346 248.198C599.642 248.198 600.884 247.658 601.586 246.722V251.24H602.972V239.234H601.658ZM598.544 246.92C596.762 246.92 595.43 245.534 595.43 243.626C595.43 241.736 596.744 240.314 598.544 240.314C600.056 240.314 601.604 241.304 601.604 243.608C601.604 245.912 600.056 246.92 598.544 246.92ZM609.269 248.198C611.285 248.198 612.887 246.758 612.887 244.508V239.234H611.501V244.598C611.501 246.038 610.493 246.92 609.269 246.92C608.009 246.92 607.001 246.038 607.001 244.598V239.234H605.633V244.508C605.633 246.758 607.217 248.198 609.269 248.198ZM623.391 242.996C623.391 240.656 621.645 239.036 619.395 239.036C616.875 239.036 614.913 241.07 614.913 243.626C614.913 246.2 616.911 248.198 619.557 248.198C620.997 248.198 622.185 247.604 623.067 246.668L622.257 245.732C621.537 246.452 620.673 246.92 619.575 246.92C617.847 246.92 616.533 245.786 616.353 244.04H623.283C623.319 243.86 623.391 243.464 623.391 242.996ZM619.359 240.296C620.745 240.296 621.951 241.196 621.969 242.816H616.407C616.713 241.304 617.883 240.296 619.359 240.296ZM636.014 239.234L633.116 245.84L630.2 239.234H628.724L632.864 248.198H633.368L637.49 239.234H636.014ZM646.716 242.996C646.716 240.656 644.97 239.036 642.72 239.036C640.2 239.036 638.238 241.07 638.238 243.626C638.238 246.2 640.236 248.198 642.882 248.198C644.322 248.198 645.51 247.604 646.392 246.668L645.582 245.732C644.862 246.452 643.998 246.92 642.9 246.92C641.172 246.92 639.858 245.786 639.678 244.04H646.608C646.644 243.86 646.716 243.464 646.716 242.996ZM642.684 240.296C644.07 240.296 645.276 241.196 645.294 242.816H639.732C640.038 241.304 641.208 240.296 642.684 240.296ZM651.473 248.198C653.093 248.198 654.551 247.334 654.551 245.624C654.551 244.382 653.795 243.698 652.229 243.032L651.419 242.69C650.447 242.276 649.997 242.006 649.997 241.412C649.997 240.692 650.627 240.314 651.455 240.314C652.283 240.314 653.039 240.692 653.615 241.286L654.461 240.422C653.777 239.576 652.787 239.036 651.527 239.036C649.925 239.036 648.575 239.9 648.575 241.484C648.575 242.726 649.421 243.356 650.753 243.914L651.599 244.274C652.481 244.634 653.129 244.922 653.129 245.678C653.129 246.47 652.373 246.92 651.455 246.92C650.393 246.92 649.655 246.326 648.935 245.57L648.053 246.488C648.755 247.424 649.925 248.198 651.473 248.198ZM660.403 246.938C659.305 246.938 658.549 246.578 658.549 245.264V240.476H661.285V239.234H658.549V236.84H657.163V239.234H655.687V240.476H657.163V245.354C657.163 247.352 658.387 248.198 660.115 248.198C660.673 248.198 661.123 248.108 661.573 248V246.83C661.123 246.902 660.745 246.938 660.403 246.938ZM664.072 236.894C664.63 236.894 665.098 236.462 665.098 235.886C665.098 235.328 664.63 234.878 664.072 234.878C663.496 234.878 663.028 235.328 663.028 235.886C663.028 236.462 663.496 236.894 664.072 236.894ZM663.37 248H664.756V239.234H663.37V248ZM672.138 239.036C670.824 239.036 669.618 239.594 668.916 240.512V234.5H667.53V248H668.826V246.614C669.51 247.604 670.788 248.198 672.156 248.198C674.658 248.198 676.476 246.2 676.476 243.626C676.476 241.034 674.64 239.036 672.138 239.036ZM671.94 246.92C670.428 246.92 668.898 245.93 668.898 243.626C668.898 241.322 670.41 240.314 671.94 240.314C673.722 240.314 675.054 241.7 675.054 243.608C675.054 245.516 673.74 246.92 671.94 246.92ZM682.161 248.198C684.177 248.198 685.779 246.758 685.779 244.508V239.234H684.393V244.598C684.393 246.038 683.385 246.92 682.161 246.92C680.901 246.92 679.893 246.038 679.893 244.598V239.234H678.525V244.508C678.525 246.758 680.109 248.198 682.161 248.198ZM688.435 248H689.821V234.5H688.435V248ZM696.123 248.198C698.139 248.198 699.741 246.758 699.741 244.508V239.234H698.355V244.598C698.355 246.038 697.347 246.92 696.123 246.92C694.863 246.92 693.855 246.038 693.855 244.598V239.234H692.487V244.508C692.487 246.758 694.071 248.198 696.123 248.198ZM712.009 239.036C710.659 239.036 709.615 239.666 709.003 240.548C708.517 239.63 707.617 239.036 706.303 239.036C705.205 239.036 704.305 239.45 703.693 240.152V239.234H702.397V248H703.783V242.672C703.783 241.286 704.683 240.314 706.015 240.314C707.311 240.314 708.103 241.286 708.103 242.672V248H709.489V242.546C709.489 241.322 710.407 240.314 711.739 240.314C713.053 240.314 713.809 241.286 713.809 242.672V248H715.195V242.492C715.195 240.458 714.061 239.036 712.009 239.036ZM726.631 239.036C725.497 239.036 724.561 239.468 723.931 240.17V239.234H722.635V248H724.021V242.654C724.021 241.286 724.975 240.314 726.325 240.314C727.675 240.314 728.503 241.268 728.503 242.654V248H729.889V242.492C729.889 240.458 728.701 239.036 726.631 239.036ZM736.088 248.198C738.104 248.198 739.706 246.758 739.706 244.508V239.234H738.32V244.598C738.32 246.038 737.312 246.92 736.088 246.92C734.828 246.92 733.82 246.038 733.82 244.598V239.234H732.452V244.508C732.452 246.758 734.036 248.198 736.088 248.198ZM746.358 239.036C745.224 239.036 744.288 239.468 743.658 240.17V239.234H742.362V248H743.748V242.654C743.748 241.286 744.702 240.314 746.052 240.314C747.402 240.314 748.23 241.268 748.23 242.654V248H749.616V242.492C749.616 240.458 748.428 239.036 746.358 239.036ZM756.247 248.198C757.813 248.198 759.073 247.442 759.847 246.29L758.857 245.516C758.209 246.38 757.381 246.92 756.265 246.92C754.429 246.92 753.079 245.462 753.079 243.608C753.079 241.772 754.429 240.314 756.265 240.314C757.399 240.314 758.227 240.872 758.875 241.736L759.865 240.944C759.091 239.792 757.831 239.036 756.247 239.036C753.691 239.036 751.657 241.052 751.657 243.608C751.657 246.182 753.691 248.198 756.247 248.198ZM774.554 242.996C774.554 240.656 772.808 239.036 770.558 239.036C768.038 239.036 766.076 241.07 766.076 243.626C766.076 246.2 768.074 248.198 770.72 248.198C772.16 248.198 773.348 247.604 774.23 246.668L773.42 245.732C772.7 246.452 771.836 246.92 770.738 246.92C769.01 246.92 767.696 245.786 767.516 244.04H774.446C774.482 243.86 774.554 243.464 774.554 242.996ZM770.522 240.296C771.908 240.296 773.114 241.196 773.132 242.816H767.57C767.876 241.304 769.046 240.296 770.522 240.296ZM780.248 248.198C782.264 248.198 783.866 246.758 783.866 244.508V239.234H782.48V244.598C782.48 246.038 781.472 246.92 780.248 246.92C778.988 246.92 777.98 246.038 777.98 244.598V239.234H776.612V244.508C776.612 246.758 778.196 248.198 780.248 248.198ZM571.175 264.894C571.733 264.894 572.201 264.462 572.201 263.886C572.201 263.328 571.733 262.878 571.175 262.878C570.599 262.878 570.131 263.328 570.131 263.886C570.131 264.462 570.599 264.894 571.175 264.894ZM570.473 276H571.859V267.234H570.473V276ZM577.783 267.036C576.379 267.036 575.047 267.63 574.219 268.962L575.137 269.718C575.821 268.836 576.595 268.314 577.693 268.314C578.989 268.314 579.817 269.052 579.817 270.528V271.284H577.045C575.137 271.284 573.895 272.256 573.895 273.732C573.895 275.262 575.191 276.198 576.955 276.198C578.251 276.198 579.277 275.712 579.907 274.866V276H581.203V270.6C581.203 268.242 579.781 267.036 577.783 267.036ZM577.135 275.046C576.163 275.046 575.317 274.596 575.317 273.66C575.317 272.832 575.983 272.418 577.207 272.418H579.817V272.634C579.817 274.002 578.575 275.046 577.135 275.046ZM587.833 276.198C589.399 276.198 590.659 275.442 591.433 274.29L590.443 273.516C589.795 274.38 588.967 274.92 587.851 274.92C586.015 274.92 584.665 273.462 584.665 271.608C584.665 269.772 586.015 268.314 587.851 268.314C588.985 268.314 589.813 268.872 590.461 269.736L591.451 268.944C590.677 267.792 589.417 267.036 587.833 267.036C585.277 267.036 583.243 269.052 583.243 271.608C583.243 274.182 585.277 276.198 587.833 276.198ZM597.045 276.198C599.061 276.198 600.663 274.758 600.663 272.508V267.234H599.277V272.598C599.277 274.038 598.269 274.92 597.045 274.92C595.785 274.92 594.777 274.038 594.777 272.598V267.234H593.409V272.508C593.409 274.758 594.993 276.198 597.045 276.198ZM603.319 276H604.705V262.5H603.319V276ZM608.181 264.894C608.739 264.894 609.207 264.462 609.207 263.886C609.207 263.328 608.739 262.878 608.181 262.878C607.605 262.878 607.137 263.328 607.137 263.886C607.137 264.462 607.605 264.894 608.181 264.894ZM607.479 276H608.865V267.234H607.479V276ZM614.23 276.198C615.85 276.198 617.308 275.334 617.308 273.624C617.308 272.382 616.552 271.698 614.986 271.032L614.176 270.69C613.204 270.276 612.754 270.006 612.754 269.412C612.754 268.692 613.384 268.314 614.212 268.314C615.04 268.314 615.796 268.692 616.372 269.286L617.218 268.422C616.534 267.576 615.544 267.036 614.284 267.036C612.682 267.036 611.332 267.9 611.332 269.484C611.332 270.726 612.178 271.356 613.51 271.914L614.356 272.274C615.238 272.634 615.886 272.922 615.886 273.678C615.886 274.47 615.13 274.92 614.212 274.92C613.15 274.92 612.412 274.326 611.692 273.57L610.81 274.488C611.512 275.424 612.682 276.198 614.23 276.198ZM620.532 276.198C621.144 276.198 621.666 275.73 621.666 275.064C621.666 274.398 621.144 273.93 620.532 273.93C619.92 273.93 619.398 274.398 619.398 275.064C619.398 275.73 619.92 276.198 620.532 276.198Z" fill="#05506C" />
    <path d="M170.5 188C40.5002 218 -0.781889 346 54.5001 444C109.782 542 269 590 469 496C707 384.14 945 456 987 496" stroke="#00AEEF" stroke-opacity="0.2" stroke-width="60" stroke-linecap="round" stroke-linejoin="round" />
    <path d="M170.924 158C40.9238 188 -0.358305 316 54.9236 414C110.206 512 269.423 560 469.423 466C707.424 354.14 945.423 426 987.423 466" stroke="#F05A94" stroke-width="60" stroke-linecap="round" stroke-linejoin="round" />
    <path fill-rule="evenodd" clip-rule="evenodd" d="M163.5 169C179.24 169 192 165.194 192 160.5C192 155.806 179.24 152 163.5 152C147.76 152 135 155.806 135 160.5C135 165.194 147.76 169 163.5 169Z" fill="url(#paint0_radial)" />
    <path fill-rule="evenodd" clip-rule="evenodd" d="M160.038 159.217C161.973 161.631 165.582 161.631 167.517 159.217C177.417 146.87 203.555 112.585 203.555 94.7773C203.555 72.8089 185.746 55 163.777 55C141.809 55 124 72.8089 124 94.7773C124 112.585 150.138 146.87 160.038 159.217Z" fill="url(#paint1_linear)" />
    <path fill-rule="evenodd" clip-rule="evenodd" d="M163.777 109.395C172.999 109.395 180.475 101.919 180.475 92.6973C180.475 83.4756 172.999 76 163.777 76C154.556 76 147.08 83.4756 147.08 92.6973C147.08 101.919 154.556 109.395 163.777 109.395Z" fill="white" />
    <g filter="url(#filter0_f)">
        <ellipse cx="1050" cy="547" rx="81" ry="8" fill="#C4C4C4" />
    </g>
    <path d="M1026.4 547C1029.16 547 1031.4 544.761 1031.4 542V502.235C1031.4 499.474 1033.64 497.235 1036.4 497.235H1059.6C1062.36 497.235 1064.6 499.474 1064.6 502.235V542C1064.6 544.761 1066.84 547 1069.6 547H1101.1C1103.86 547 1106.1 544.761 1106.1 542V485.647C1106.1 482.886 1108.34 480.647 1111.1 480.647H1117.96C1122.55 480.647 1124.71 474.994 1121.31 471.929L1051.34 409.007C1049.44 407.297 1046.56 407.297 1044.66 409.007L974.693 471.929C971.285 474.994 973.453 480.647 978.037 480.647H984.9C987.661 480.647 989.9 482.886 989.9 485.647V542C989.9 544.761 992.139 547 994.9 547H1026.4Z" fill="#00AEEF" />
    <defs>
        <filter id="filter0_f" x="959" y="529" width="182" height="36" filterUnits="userSpaceOnUse" color-interpolation-filters="sRGB">
            <feFlood flood-opacity="0" result="BackgroundImageFix" />
            <feBlend mode="normal" in="SourceGraphic" in2="BackgroundImageFix" result="shape" />
            <feGaussianBlur stdDeviation="5" result="effect1_foregroundBlur" />
        </filter>
        <radialGradient id="paint0_radial" cx="0" cy="0" r="1" gradientUnits="userSpaceOnUse" gradientTransform="translate(163.5 160.5) rotate(180) scale(25.3418 2.49287)">
            <stop stop-color="#2587F1" stop-opacity="0.6" />
            <stop offset="1" stop-color="#0C2D47" stop-opacity="0.01" />
        </radialGradient>
        <linearGradient id="paint1_linear" x1="124" y1="55" x2="124" y2="163.789" gradientUnits="userSpaceOnUse">
            <stop stop-color="#00D7F8" />
            <stop offset="1" stop-color="#00AEEF" />
        </linearGradient>
    </defs>
</svg>
