<svg width="47" height="47" viewBox="0 0 47 47" fill="none" xmlns="http://www.w3.org/2000/svg">
<path d="M23.4999 46.1368C10.9472 46.1368 0.77124 35.9404 0.77124 23.3624C0.77124 10.7843 10.9472 0.587891 23.4999 0.587891C36.0526 0.587891 46.2286 10.7843 46.2286 23.3624C46.2286 35.9404 36.0526 46.1368 23.4999 46.1368Z" fill="#00AEEF"/>
<path d="M23.4999 13.1298C26.8321 13.1298 27.2263 13.1418 28.5401 13.2016C29.7583 13.2615 30.4152 13.4649 30.8571 13.6325C31.4424 13.8598 31.8484 14.1351 32.2904 14.5659C32.7323 15.0087 32.995 15.4156 33.222 16.0021C33.3892 16.4449 33.5922 17.1031 33.6519 18.3238C33.7116 19.6402 33.7236 20.0352 33.7236 23.3742C33.7236 26.7132 33.7116 27.1081 33.6519 28.4245C33.5922 29.6452 33.3892 30.3035 33.222 30.7463C32.995 31.3327 32.7203 31.7396 32.2904 32.1824C31.8484 32.6132 31.4424 32.8885 30.8571 33.1159C30.4152 33.2834 29.7583 33.4869 28.5401 33.5467C27.2263 33.6066 26.8321 33.6185 23.4999 33.6185C20.1676 33.6185 19.7735 33.6066 18.4597 33.5467C17.2414 33.4869 16.5845 33.2834 16.1426 33.1159C15.5574 32.8885 15.1513 32.6132 14.7094 32.1824C14.2794 31.7396 14.0047 31.3327 13.7778 30.7463C13.6106 30.3035 13.4076 29.6452 13.3478 28.4245C13.2881 27.1081 13.2762 26.7132 13.2762 23.3742C13.2762 20.0352 13.2881 19.6402 13.3478 18.3238C13.4076 17.1031 13.6106 16.4449 13.7778 16.0021C14.0047 15.4156 14.2794 15.0087 14.7094 14.5659C15.1513 14.1231 15.5574 13.8598 16.1426 13.6325C16.5845 13.4649 17.2414 13.2615 18.4597 13.2016C19.7735 13.1418 20.1676 13.1298 23.4999 13.1298ZM23.4999 10.8799C20.1198 10.8799 19.6899 10.8918 18.3641 10.9517C17.0384 11.0115 16.1307 11.2269 15.3424 11.5381C14.5183 11.8612 13.8256 12.2801 13.1329 12.9742C12.4401 13.6684 12.0101 14.3625 11.6996 15.1883C11.3891 15.9781 11.186 16.8877 11.1144 18.2161C11.0547 19.5445 11.0427 19.9753 11.0427 23.3622C11.0427 26.7491 11.0547 27.1799 11.1144 28.5083C11.1741 29.8367 11.3891 30.7463 11.6996 31.5361C12.0221 32.3619 12.4401 33.056 13.1329 33.7502C13.8256 34.4443 14.5183 34.8751 15.3424 35.1863C16.1307 35.4974 17.0384 35.7009 18.3641 35.7727C19.6899 35.8325 20.1198 35.8445 23.4999 35.8445C26.8799 35.8445 27.3099 35.8325 28.6356 35.7727C29.9614 35.7129 30.8691 35.4974 31.6573 35.1863C32.4815 34.8632 33.1742 34.4443 33.8669 33.7502C34.5596 33.056 34.9896 32.3619 35.3001 31.5361C35.6107 30.7463 35.8137 29.8367 35.8854 28.5083C35.9451 27.1799 35.957 26.7491 35.957 23.3622C35.957 19.9753 35.9451 19.5445 35.8854 18.2161C35.8257 16.8877 35.6107 15.9781 35.3001 15.1883C34.9777 14.3625 34.5596 13.6684 33.8669 12.9742C33.1742 12.2801 32.4815 11.8493 31.6573 11.5381C30.8691 11.2269 29.9614 11.0235 28.6356 10.9517C27.3099 10.8918 26.8799 10.8799 23.4999 10.8799Z" fill="white"/>
<path d="M23.4999 16.9478C19.9646 16.9478 17.0981 19.82 17.0981 23.3624C17.0981 26.9048 19.9646 29.7771 23.4999 29.7771C27.0352 29.7771 29.9016 26.9048 29.9016 23.3624C29.9016 19.82 27.0352 16.9478 23.4999 16.9478ZM23.4999 27.5271C21.2067 27.5271 19.3435 25.6602 19.3435 23.3624C19.3435 21.0646 21.2067 19.1977 23.4999 19.1977C25.7931 19.1977 27.6563 21.0646 27.6563 23.3624C27.6563 25.6602 25.7931 27.5271 23.4999 27.5271Z" fill="white"/>
<path d="M31.6456 16.6962C31.6456 17.522 30.9767 18.1922 30.1526 18.1922C29.3285 18.1922 28.6597 17.522 28.6597 16.6962C28.6597 15.8704 29.3285 15.2002 30.1526 15.2002C30.9767 15.2002 31.6456 15.8704 31.6456 16.6962Z" fill="white"/>
</svg>
