<svg width="65" height="65" viewBox="0 0 65 65" fill="none" xmlns="http://www.w3.org/2000/svg">
    <path d="M32.8173 64.1367C15.142 64.1367 0.813477 49.7793 0.813477 32.0684C0.813477 14.3575 15.142 0 32.8173 0C50.4926 0 64.8212 14.3575 64.8212 32.0684C64.8212 49.7793 50.4926 64.1367 32.8173 64.1367Z" fill="#00AEEF" />
    <path d="M32.8173 17.66C37.5094 17.66 38.0644 17.6769 39.9143 17.7611C41.6297 17.8454 42.5547 18.1319 43.1769 18.3678C44.001 18.688 44.5728 19.0756 45.195 19.6822C45.8173 20.3057 46.1873 20.8787 46.5068 21.7044C46.7423 22.3279 47.0282 23.2547 47.1122 24.9736C47.1963 26.8273 47.2131 27.3834 47.2131 32.0849C47.2131 36.7865 47.1963 37.3426 47.1122 39.1963C47.0282 40.9151 46.7423 41.842 46.5068 42.4655C46.1873 43.2912 45.8005 43.8641 45.195 44.4876C44.5728 45.0943 44.001 45.4819 43.1769 45.8021C42.5547 46.038 41.6297 46.3245 39.9143 46.4087C38.0644 46.493 37.5094 46.5098 32.8173 46.5098C28.1252 46.5098 27.5702 46.493 25.7203 46.4087C24.0049 46.3245 23.08 46.038 22.4577 45.8021C21.6336 45.4819 21.0619 45.0943 20.4396 44.4876C19.8342 43.8641 19.4474 43.2912 19.1278 42.4655C18.8924 41.842 18.6065 40.9151 18.5224 39.1963C18.4383 37.3426 18.4215 36.7865 18.4215 32.0849C18.4215 27.3834 18.4383 26.8273 18.5224 24.9736C18.6065 23.2547 18.8924 22.3279 19.1278 21.7044C19.4474 20.8787 19.8342 20.3057 20.4396 19.6822C21.0619 19.0587 21.6336 18.688 22.4577 18.3678C23.08 18.1319 24.0049 17.8454 25.7203 17.7611C27.5702 17.6769 28.1252 17.66 32.8173 17.66ZM32.8173 14.4919C28.0579 14.4919 27.4525 14.5088 25.5858 14.5931C23.719 14.6773 22.4409 14.9806 21.3309 15.4188C20.1705 15.8738 19.1951 16.4636 18.2197 17.441C17.2443 18.4183 16.6388 19.3957 16.2016 20.5585C15.7643 21.6707 15.4784 22.9514 15.3775 24.8219C15.2934 26.6924 15.2766 27.2991 15.2766 32.0681C15.2766 36.8371 15.2934 37.4437 15.3775 39.3142C15.4616 41.1847 15.7643 42.4655 16.2016 43.5777C16.6556 44.7404 17.2443 45.7178 18.2197 46.6952C19.1951 47.6726 20.1705 48.2792 21.3309 48.7174C22.4409 49.1555 23.719 49.442 25.5858 49.5431C27.4525 49.6274 28.0579 49.6442 32.8173 49.6442C37.5767 49.6442 38.1821 49.6274 40.0489 49.5431C41.9156 49.4588 43.1938 49.1555 44.3037 48.7174C45.4641 48.2624 46.4396 47.6726 47.415 46.6952C48.3904 45.7178 48.9958 44.7404 49.4331 43.5777C49.8703 42.4655 50.1562 41.1847 50.2571 39.3142C50.3412 37.4437 50.3581 36.8371 50.3581 32.0681C50.3581 27.2991 50.3412 26.6924 50.2571 24.8219C50.1731 22.9514 49.8703 21.6707 49.4331 20.5585C48.979 19.3957 48.3904 18.4183 47.415 17.441C46.4396 16.4636 45.4641 15.8569 44.3037 15.4188C43.1938 14.9806 41.9156 14.6942 40.0489 14.5931C38.1821 14.5088 37.5767 14.4919 32.8173 14.4919Z" fill="white" />
    <path d="M32.8174 23.0359C27.8394 23.0359 23.8032 27.0802 23.8032 32.0683C23.8032 37.0563 27.8394 41.1006 32.8174 41.1006C37.7954 41.1006 41.8316 37.0563 41.8316 32.0683C41.8316 27.0802 37.7954 23.0359 32.8174 23.0359ZM32.8174 37.9326C29.5884 37.9326 26.9649 35.3037 26.9649 32.0683C26.9649 28.8328 29.5884 26.204 32.8174 26.204C36.0464 26.204 38.6699 28.8328 38.6699 32.0683C38.6699 35.3037 36.0464 37.9326 32.8174 37.9326Z" fill="white" />
    <path d="M44.2869 22.6817C44.2869 23.8445 43.3451 24.7882 42.1847 24.7882C41.0243 24.7882 40.0825 23.8445 40.0825 22.6817C40.0825 21.5189 41.0243 20.5752 42.1847 20.5752C43.3451 20.5752 44.2869 21.5189 44.2869 22.6817Z" fill="white" />
</svg>
