<svg width="47" height="46" viewBox="0 0 47 46" fill="none" xmlns="http://www.w3.org/2000/svg">
<path d="M23.5001 45.549C10.9474 45.549 0.771484 35.3525 0.771484 22.7745C0.771484 10.1965 10.9474 0 23.5001 0C36.0529 0 46.2288 10.1965 46.2288 22.7745C46.2288 35.3525 36.0529 45.549 23.5001 45.549Z" fill="#ED705D"/>
<path d="M23.5001 12.5419C26.8324 12.5419 27.2265 12.5539 28.5403 12.6137C29.7586 12.6736 30.4155 12.877 30.8574 13.0446C31.4426 13.2719 31.8487 13.5472 32.2906 13.978C32.7325 14.4208 32.9953 14.8278 33.2222 15.4142C33.3894 15.857 33.5925 16.5152 33.6522 17.7359C33.7119 19.0523 33.7238 19.4473 33.7238 22.7863C33.7238 26.1253 33.7119 26.5202 33.6522 27.8366C33.5925 29.0573 33.3894 29.7156 33.2222 30.1584C32.9953 30.7448 32.7206 31.1517 32.2906 31.5945C31.8487 32.0253 31.4426 32.3006 30.8574 32.528C30.4155 32.6955 29.7586 32.899 28.5403 32.9588C27.2265 33.0187 26.8324 33.0306 23.5001 33.0306C20.1679 33.0306 19.7737 33.0187 18.4599 32.9588C17.2417 32.899 16.5848 32.6955 16.1429 32.528C15.5576 32.3006 15.1516 32.0253 14.7096 31.5945C14.2797 31.1517 14.005 30.7448 13.7781 30.1584C13.6108 29.7156 13.4078 29.0573 13.3481 27.8366C13.2884 26.5202 13.2764 26.1253 13.2764 22.7863C13.2764 19.4473 13.2884 19.0523 13.3481 17.7359C13.4078 16.5152 13.6108 15.857 13.7781 15.4142C14.005 14.8278 14.2797 14.4208 14.7096 13.978C15.1516 13.5352 15.5576 13.2719 16.1429 13.0446C16.5848 12.877 17.2417 12.6736 18.4599 12.6137C19.7737 12.5539 20.1679 12.5419 23.5001 12.5419ZM23.5001 10.292C20.1201 10.292 19.6901 10.304 18.3644 10.3638C17.0386 10.4236 16.1309 10.6391 15.3427 10.9502C14.5186 11.2733 13.8258 11.6922 13.1331 12.3863C12.4404 13.0805 12.0104 13.7746 11.6999 14.6004C11.3893 15.3902 11.1863 16.2998 11.1146 17.6282C11.0549 18.9566 11.043 19.3874 11.043 22.7743C11.043 26.1612 11.0549 26.592 11.1146 27.9204C11.1743 29.2488 11.3893 30.1584 11.6999 30.9482C12.0223 31.774 12.4404 32.4681 13.1331 33.1623C13.8258 33.8564 14.5186 34.2872 15.3427 34.5984C16.1309 34.9096 17.0386 35.113 18.3644 35.1848C19.6901 35.2446 20.1201 35.2566 23.5001 35.2566C26.8802 35.2566 27.3101 35.2446 28.6359 35.1848C29.9616 35.125 30.8693 34.9096 31.6576 34.5984C32.4817 34.2753 33.1744 33.8564 33.8672 33.1623C34.5599 32.4681 34.9899 31.774 35.3004 30.9482C35.6109 30.1584 35.814 29.2488 35.8856 27.9204C35.9454 26.592 35.9573 26.1612 35.9573 22.7743C35.9573 19.3874 35.9454 18.9566 35.8856 17.6282C35.8259 16.2998 35.6109 15.3902 35.3004 14.6004C34.9779 13.7746 34.5599 13.0805 33.8672 12.3863C33.1744 11.6922 32.4817 11.2614 31.6576 10.9502C30.8693 10.6391 29.9616 10.4356 28.6359 10.3638C27.3101 10.304 26.8802 10.292 23.5001 10.292Z" fill="white"/>
<path d="M23.4994 16.3604C19.9641 16.3604 17.0977 19.2326 17.0977 22.775C17.0977 26.3174 19.9641 29.1897 23.4994 29.1897C27.0347 29.1897 29.9012 26.3174 29.9012 22.775C29.9012 19.2326 27.0347 16.3604 23.4994 16.3604ZM23.4994 26.9397C21.2062 26.9397 19.343 25.0728 19.343 22.775C19.343 20.4772 21.2062 18.6103 23.4994 18.6103C25.7926 18.6103 27.6558 20.4772 27.6558 22.775C27.6558 25.0728 25.7926 26.9397 23.4994 26.9397Z" fill="white"/>
<path d="M31.6461 16.1083C31.6461 16.9341 30.9772 17.6043 30.1531 17.6043C29.329 17.6043 28.6602 16.9341 28.6602 16.1083C28.6602 15.2825 29.329 14.6123 30.1531 14.6123C30.9772 14.6123 31.6461 15.2825 31.6461 16.1083Z" fill="white"/>
</svg>
