<svg width="65" height="65" viewBox="0 0 65 65" fill="none" xmlns="http://www.w3.org/2000/svg">
    <path d="M32.631 64.1367C14.9558 64.1367 0.627197 49.7793 0.627197 32.0684C0.627197 14.3575 14.9558 0 32.631 0C50.3063 0 64.6349 14.3575 64.6349 32.0684C64.6349 49.7793 50.3063 64.1367 32.631 64.1367Z" fill="#00AEEF" />
    <path d="M24.7436 24.9062H18.1174V46.3415H24.7436V24.9062Z" fill="white" />
    <path d="M21.397 22.109C23.5664 22.109 25.3155 20.3396 25.3155 18.149C25.3155 15.9583 23.5664 14.189 21.397 14.189C19.2275 14.189 17.4785 15.9583 17.4785 18.149C17.4785 20.3396 19.2275 22.109 21.397 22.109Z" fill="white" />
    <path d="M35.3385 35.1017C35.3385 32.0852 36.7175 30.299 39.3747 30.299C41.8132 30.299 42.9737 32.0178 42.9737 35.1017C42.9737 38.1855 42.9737 46.3585 42.9737 46.3585H49.5661C49.5661 46.3585 49.5661 38.5225 49.5661 32.7761C49.5661 27.0298 46.3204 24.2493 41.7796 24.2493C37.2389 24.2493 35.3385 27.7881 35.3385 27.7881V24.9065H28.9814V46.3416H35.3385C35.3385 46.3585 35.3385 38.4045 35.3385 35.1017Z" fill="white" />
</svg>
