<svg width="46" height="47" viewBox="0 0 46 47" fill="none" xmlns="http://www.w3.org/2000/svg">
<path d="M23.2714 46.1368C10.7187 46.1368 0.542725 35.9404 0.542725 23.3624C0.542725 10.7843 10.7187 0.587891 23.2714 0.587891C35.8241 0.587891 46 10.7843 46 23.3624C46 35.9404 35.8241 46.1368 23.2714 46.1368Z" fill="#00AEEF"/>
<path d="M17.6696 18.2759H12.9639V33.4989H17.6696V18.2759Z" fill="white"/>
<path d="M15.2931 16.2892C16.8338 16.2892 18.0759 15.0326 18.0759 13.4769C18.0759 11.9211 16.8338 10.6646 15.2931 10.6646C13.7524 10.6646 12.5103 11.9211 12.5103 13.4769C12.5103 15.0326 13.7524 16.2892 15.2931 16.2892Z" fill="white"/>
<path d="M25.1941 25.5163C25.1941 23.3741 26.1735 22.1055 28.0606 22.1055C29.7924 22.1055 30.6165 23.3262 30.6165 25.5163C30.6165 27.7064 30.6165 33.5107 30.6165 33.5107H35.2984C35.2984 33.5107 35.2984 27.9457 35.2984 23.8647C35.2984 19.7838 32.9933 17.8091 29.7685 17.8091C26.5437 17.8091 25.1941 20.3223 25.1941 20.3223V18.2758H20.6794V33.4987H25.1941C25.1941 33.5107 25.1941 27.862 25.1941 25.5163Z" fill="white"/>
</svg>
