<svg width="46" height="46" viewBox="0 0 46 46" fill="none" xmlns="http://www.w3.org/2000/svg">
<path d="M23.2716 45.549C10.7189 45.549 0.542969 35.3525 0.542969 22.7745C0.542969 10.1965 10.7189 0 23.2716 0C35.8243 0 46.0003 10.1965 46.0003 22.7745C46.0003 35.3525 35.8243 45.549 23.2716 45.549Z" fill="#ED705D"/>
<path d="M17.6687 17.6885H12.9629V32.9115H17.6687V17.6885Z" fill="white"/>
<path d="M15.2926 15.7018C16.8333 15.7018 18.0754 14.4452 18.0754 12.8895C18.0754 11.3337 16.8333 10.0771 15.2926 10.0771C13.7519 10.0771 12.5098 11.3337 12.5098 12.8895C12.5098 14.4452 13.7519 15.7018 15.2926 15.7018Z" fill="white"/>
<path d="M25.1944 24.9289C25.1944 22.7867 26.1737 21.5181 28.0608 21.5181C29.7926 21.5181 30.6168 22.7388 30.6168 24.9289C30.6168 27.119 30.6168 32.9233 30.6168 32.9233H35.2986C35.2986 32.9233 35.2986 27.3583 35.2986 23.2773C35.2986 19.1963 32.9935 17.2217 29.7688 17.2217C26.544 17.2217 25.1944 19.7349 25.1944 19.7349V17.6884H20.6797V32.9113H25.1944C25.1944 32.9233 25.1944 27.2746 25.1944 24.9289Z" fill="white"/>
</svg>
