<svg width="46" height="47" viewBox="0 0 46 47" fill="none" xmlns="http://www.w3.org/2000/svg">
<path d="M22.7287 46.1368C10.1759 46.1368 0 35.9404 0 23.3624C0 10.7843 10.1759 0.587891 22.7287 0.587891C35.2814 0.587891 45.4573 10.7843 45.4573 23.3624C45.4573 35.9404 35.2814 46.1368 22.7287 46.1368Z" fill="#00AEEF"/>
<path d="M28.5525 30.0472C22.3831 36.3298 13.7164 33.7158 10 31.7404C12.9261 32.2038 16.3605 30.3888 17.7119 29.4234C14.7858 29.5303 13.3492 26.8539 12.9966 25.5023C13.8075 26.1796 14.8034 25.7845 15.2 25.5023C11.3925 24.2904 10.9989 21.4327 11.278 20.1554C11.8773 20.7614 12.9966 20.8832 13.4814 20.8683C10.0264 18.1592 11.0429 15.0758 11.9831 13.8728C14.7329 17.4374 20.2972 19.0415 22.7356 19.3979C22.4859 18.0612 22.4095 15.5838 24.9831 13.8728C27.5566 12.1618 30.6825 13.3084 31.8136 14.4075C32.8359 14.1936 34.5017 13.546 35.2068 13.249C35.0658 14.6392 33.6203 15.759 32.9153 16.1452C34.0081 16.1452 35.4271 15.6402 36 15.3877C35.4359 16.4571 34.0023 17.675 33.3559 18.1503C33.3559 18.1503 34.722 23.7646 28.5525 30.0472Z" fill="white"/>
</svg>
