<svg width="46" height="46" viewBox="0 0 46 46" fill="none" xmlns="http://www.w3.org/2000/svg">
<path d="M22.7287 45.549C10.1759 45.549 0 35.3525 0 22.7745C0 10.1965 10.1759 0 22.7287 0C35.2814 0 45.4573 10.1965 45.4573 22.7745C45.4573 35.3525 35.2814 45.549 22.7287 45.549Z" fill="#ED705D"/>
<path d="M28.5525 29.4593C22.3831 35.742 13.7164 33.1279 10 31.1525C12.9261 31.6159 16.3605 29.8009 17.7119 28.8355C14.7858 28.9424 13.3492 26.266 12.9966 24.9144C13.8075 25.5917 14.8034 25.1966 15.2 24.9144C11.3925 23.7025 10.9989 20.8448 11.278 19.5675C11.8773 20.1735 12.9966 20.2953 13.4814 20.2804C10.0264 17.5713 11.0429 14.4879 11.9831 13.2849C14.7329 16.8495 20.2972 18.4536 22.7356 18.81C22.4859 17.4733 22.4095 14.9959 24.9831 13.2849C27.5566 11.5739 30.6825 12.7205 31.8136 13.8196C32.8359 13.6057 34.5017 12.9581 35.2068 12.6611C35.0658 14.0513 33.6203 15.1712 32.9153 15.5573C34.0081 15.5573 35.4271 15.0523 36 14.7998C35.4359 15.8692 34.0023 17.0871 33.3559 17.5624C33.3559 17.5624 34.722 23.1767 28.5525 29.4593Z" fill="white"/>
</svg>
