<svg width="46" height="46" viewBox="0 0 46 46" fill="none" xmlns="http://www.w3.org/2000/svg">
<path d="M22.7287 45.549C10.1759 45.549 0 35.3525 0 22.7745C0 10.1965 10.1759 0 22.7287 0C35.2814 0 45.4573 10.1965 45.4573 22.7745C45.4573 35.3525 35.2814 45.549 22.7287 45.549Z" fill="#ED705D"/>
<path d="M35.4567 16.8604C35.1577 15.7345 34.2767 14.8477 33.158 14.5468C31.1304 14 23 14 23 14C23 14 14.8696 14 12.842 14.5468C11.7233 14.8478 10.8423 15.7345 10.5433 16.8604C10 18.9012 10 23.1591 10 23.1591C10 23.1591 10 27.417 10.5433 29.4578C10.8423 30.5837 11.7233 31.4335 12.842 31.7344C14.8696 32.2812 23 32.2812 23 32.2812C23 32.2812 31.1304 32.2812 33.158 31.7344C34.2767 31.4335 35.1577 30.5837 35.4567 29.4578C36 27.417 36 23.1591 36 23.1591C36 23.1591 36 18.9012 35.4567 16.8604ZM20.3409 27.0249V19.2932L27.1363 23.1592L20.3409 27.0249Z" fill="white"/>
</svg>
